<mxfile host="app.diagrams.net" modified="2021-11-16T08:02:58.067Z" agent="5.0 (Windows NT 10.0; Win64; x64) AppleWebKit/537.36 (KHTML, like Gecko) Chrome/93.0.4577.63 Safari/537.36 Edg/93.0.961.44" etag="UT9XzU89KteOY6lOrNj9" version="15.7.4" type="github">
  <diagram id="rwgk2Mc4SkRH6sqRqtgM" name="第 1 页">
    <mxGraphModel dx="4082" dy="505" grid="1" gridSize="10" guides="1" tooltips="1" connect="1" arrows="1" fold="1" page="1" pageScale="1" pageWidth="3300" pageHeight="4681" math="0" shadow="0">
      <root>
        <mxCell id="0" />
        <mxCell id="1" parent="0" />
        <mxCell id="tqcYL5JHo3V-tpUGzpkq-26" value="" style="whiteSpace=wrap;html=1;shadow=0;glass=0;strokeWidth=2;fillColor=none;gradientDirection=south;" parent="1" vertex="1">
          <mxGeometry x="154" y="130" width="100" height="50" as="geometry" />
        </mxCell>
        <mxCell id="tqcYL5JHo3V-tpUGzpkq-36" value="" style="endArrow=none;html=1;edgeStyle=orthogonalEdgeStyle;strokeWidth=2;" parent="1" edge="1">
          <mxGeometry width="50" height="50" relative="1" as="geometry">
            <mxPoint x="203.76" y="180" as="sourcePoint" />
            <mxPoint x="203.76" y="130" as="targetPoint" />
          </mxGeometry>
        </mxCell>
        <mxCell id="tqcYL5JHo3V-tpUGzpkq-37" value="" style="whiteSpace=wrap;html=1;shadow=0;glass=0;strokeWidth=2;fillColor=none;gradientDirection=south;" parent="1" vertex="1">
          <mxGeometry x="290" y="130" width="100" height="50" as="geometry" />
        </mxCell>
        <mxCell id="tqcYL5JHo3V-tpUGzpkq-38" value="" style="endArrow=none;html=1;edgeStyle=orthogonalEdgeStyle;strokeWidth=2;" parent="1" edge="1">
          <mxGeometry width="50" height="50" relative="1" as="geometry">
            <mxPoint x="339.76" y="180" as="sourcePoint" />
            <mxPoint x="339.76" y="130" as="targetPoint" />
          </mxGeometry>
        </mxCell>
        <mxCell id="tqcYL5JHo3V-tpUGzpkq-39" value="" style="whiteSpace=wrap;html=1;shadow=0;glass=0;strokeWidth=2;fillColor=none;gradientDirection=south;" parent="1" vertex="1">
          <mxGeometry x="430" y="130" width="100" height="50" as="geometry" />
        </mxCell>
        <mxCell id="tqcYL5JHo3V-tpUGzpkq-40" value="" style="endArrow=none;html=1;edgeStyle=orthogonalEdgeStyle;strokeWidth=2;" parent="1" edge="1">
          <mxGeometry width="50" height="50" relative="1" as="geometry">
            <mxPoint x="479.7600000000002" y="180" as="sourcePoint" />
            <mxPoint x="479.7600000000002" y="130" as="targetPoint" />
          </mxGeometry>
        </mxCell>
        <mxCell id="tqcYL5JHo3V-tpUGzpkq-41" value="" style="whiteSpace=wrap;html=1;shadow=0;glass=0;strokeWidth=2;fillColor=none;gradientDirection=south;" parent="1" vertex="1">
          <mxGeometry x="20" y="130" width="100" height="50" as="geometry" />
        </mxCell>
        <mxCell id="tqcYL5JHo3V-tpUGzpkq-42" value="" style="endArrow=none;html=1;edgeStyle=orthogonalEdgeStyle;strokeWidth=2;" parent="1" edge="1">
          <mxGeometry width="50" height="50" relative="1" as="geometry">
            <mxPoint x="69.76000000000022" y="180" as="sourcePoint" />
            <mxPoint x="69.76000000000022" y="130" as="targetPoint" />
          </mxGeometry>
        </mxCell>
        <mxCell id="tqcYL5JHo3V-tpUGzpkq-43" value="" style="whiteSpace=wrap;html=1;fillStyle=hachure;fillColor=#3333FF;" parent="1" vertex="1">
          <mxGeometry x="430" y="130" width="50" height="50" as="geometry" />
        </mxCell>
        <mxCell id="tqcYL5JHo3V-tpUGzpkq-48" value="" style="endArrow=classic;html=1;edgeStyle=orthogonalEdgeStyle;endFill=1;strokeWidth=2;" parent="1" edge="1">
          <mxGeometry width="50" height="50" relative="1" as="geometry">
            <mxPoint x="110" y="154.58000000000004" as="sourcePoint" />
            <mxPoint x="154" y="154.58000000000004" as="targetPoint" />
            <Array as="points">
              <mxPoint x="154" y="154.58000000000004" />
            </Array>
          </mxGeometry>
        </mxCell>
        <mxCell id="tqcYL5JHo3V-tpUGzpkq-49" value="" style="endArrow=classic;html=1;edgeStyle=orthogonalEdgeStyle;entryX=0;entryY=0.5;entryDx=0;entryDy=0;fontSize=21;strokeWidth=2;" parent="1" target="tqcYL5JHo3V-tpUGzpkq-41" edge="1">
          <mxGeometry width="50" height="50" relative="1" as="geometry">
            <mxPoint x="510" y="155" as="sourcePoint" />
            <mxPoint y="155" as="targetPoint" />
            <Array as="points">
              <mxPoint x="550" y="155" />
              <mxPoint x="550" y="110" />
              <mxPoint x="-10" y="110" />
              <mxPoint x="-10" y="155" />
            </Array>
          </mxGeometry>
        </mxCell>
        <mxCell id="tqcYL5JHo3V-tpUGzpkq-50" value="" style="endArrow=classic;html=1;edgeStyle=orthogonalEdgeStyle;endFill=1;strokeWidth=2;" parent="1" edge="1">
          <mxGeometry width="50" height="50" relative="1" as="geometry">
            <mxPoint x="246" y="154.80000000000007" as="sourcePoint" />
            <mxPoint x="290" y="154.80000000000007" as="targetPoint" />
            <Array as="points">
              <mxPoint x="290" y="154.80000000000007" />
            </Array>
          </mxGeometry>
        </mxCell>
        <mxCell id="tqcYL5JHo3V-tpUGzpkq-52" value="" style="endArrow=classic;html=1;edgeStyle=orthogonalEdgeStyle;endFill=1;strokeWidth=2;" parent="1" edge="1">
          <mxGeometry width="50" height="50" relative="1" as="geometry">
            <mxPoint x="386" y="154.80000000000007" as="sourcePoint" />
            <mxPoint x="430" y="154.80000000000007" as="targetPoint" />
            <Array as="points">
              <mxPoint x="430" y="154.80000000000007" />
            </Array>
          </mxGeometry>
        </mxCell>
        <mxCell id="tqcYL5JHo3V-tpUGzpkq-53" value="list" style="text;html=1;align=center;verticalAlign=middle;resizable=0;points=[];autosize=1;strokeColor=none;fillColor=none;fontSize=30;fontFamily=Comic Sans MS;" parent="1" vertex="1">
          <mxGeometry x="535" y="195" width="60" height="40" as="geometry" />
        </mxCell>
        <mxCell id="tqcYL5JHo3V-tpUGzpkq-55" value="" style="endArrow=classic;html=1;fontFamily=Comic Sans MS;fontSize=35;endFill=1;strokeWidth=2;strokeColor=#FF0000;entryX=0.696;entryY=1.077;entryDx=0;entryDy=0;entryPerimeter=0;" parent="1" target="tqcYL5JHo3V-tpUGzpkq-39" edge="1">
          <mxGeometry width="50" height="50" relative="1" as="geometry">
            <mxPoint x="530" y="210" as="sourcePoint" />
            <mxPoint x="510" y="190" as="targetPoint" />
          </mxGeometry>
        </mxCell>
        <mxCell id="tqcYL5JHo3V-tpUGzpkq-56" value="data" style="text;html=1;strokeColor=none;fillColor=none;align=center;verticalAlign=middle;whiteSpace=wrap;fontFamily=Comic Sans MS;fontSize=21;" parent="1" vertex="1">
          <mxGeometry x="16" y="140" width="60" height="30" as="geometry" />
        </mxCell>
        <mxCell id="tqcYL5JHo3V-tpUGzpkq-57" value="data" style="text;html=1;strokeColor=none;fillColor=none;align=center;verticalAlign=middle;whiteSpace=wrap;fontFamily=Comic Sans MS;fontSize=21;" parent="1" vertex="1">
          <mxGeometry x="150" y="140" width="60" height="30" as="geometry" />
        </mxCell>
        <mxCell id="tqcYL5JHo3V-tpUGzpkq-58" value="data" style="text;html=1;strokeColor=none;fillColor=none;align=center;verticalAlign=middle;whiteSpace=wrap;fontFamily=Comic Sans MS;fontSize=21;" parent="1" vertex="1">
          <mxGeometry x="286" y="140" width="60" height="30" as="geometry" />
        </mxCell>
        <mxCell id="2EhN6xJvDQtWR0kcNnQp-10" value="" style="ellipse;whiteSpace=wrap;html=1;aspect=fixed;fillColor=#FFFFFF;strokeColor=none;gradientDirection=radial;" parent="1" vertex="1">
          <mxGeometry x="-626" y="550" width="460" height="460" as="geometry" />
        </mxCell>
        <mxCell id="2EhN6xJvDQtWR0kcNnQp-19" style="edgeStyle=none;orthogonalLoop=1;jettySize=auto;html=1;exitX=0;exitY=0;exitDx=0;exitDy=0;startArrow=none;startFill=0;endArrow=none;endFill=0;strokeWidth=2;strokeColor=#A680B8;" parent="1" source="2EhN6xJvDQtWR0kcNnQp-11" target="2EhN6xJvDQtWR0kcNnQp-10" edge="1">
          <mxGeometry relative="1" as="geometry" />
        </mxCell>
        <mxCell id="2EhN6xJvDQtWR0kcNnQp-20" style="edgeStyle=none;orthogonalLoop=1;jettySize=auto;html=1;exitX=0;exitY=1;exitDx=0;exitDy=0;startArrow=none;startFill=0;endArrow=none;endFill=0;strokeWidth=2;strokeColor=#A680B8;" parent="1" source="2EhN6xJvDQtWR0kcNnQp-11" target="2EhN6xJvDQtWR0kcNnQp-10" edge="1">
          <mxGeometry relative="1" as="geometry" />
        </mxCell>
        <mxCell id="2EhN6xJvDQtWR0kcNnQp-21" style="edgeStyle=none;orthogonalLoop=1;jettySize=auto;html=1;exitX=1;exitY=0;exitDx=0;exitDy=0;startArrow=none;startFill=0;endArrow=none;endFill=0;strokeWidth=2;strokeColor=#A680B8;" parent="1" source="2EhN6xJvDQtWR0kcNnQp-11" target="2EhN6xJvDQtWR0kcNnQp-10" edge="1">
          <mxGeometry relative="1" as="geometry" />
        </mxCell>
        <mxCell id="2EhN6xJvDQtWR0kcNnQp-22" style="edgeStyle=none;orthogonalLoop=1;jettySize=auto;html=1;exitX=1;exitY=1;exitDx=0;exitDy=0;startArrow=none;startFill=0;endArrow=none;endFill=0;strokeWidth=2;strokeColor=#A680B8;" parent="1" source="2EhN6xJvDQtWR0kcNnQp-11" target="2EhN6xJvDQtWR0kcNnQp-10" edge="1">
          <mxGeometry relative="1" as="geometry" />
        </mxCell>
        <mxCell id="2EhN6xJvDQtWR0kcNnQp-11" value="" style="ellipse;whiteSpace=wrap;html=1;aspect=fixed;gradientDirection=radial;strokeColor=none;gradientColor=#FF9933;" parent="1" vertex="1">
          <mxGeometry x="-516" y="660" width="240" height="240" as="geometry" />
        </mxCell>
        <mxCell id="2EhN6xJvDQtWR0kcNnQp-12" value="" style="endArrow=none;html=1;entryX=0.5;entryY=0;entryDx=0;entryDy=0;strokeWidth=2;strokeColor=#A680B8;" parent="1" target="2EhN6xJvDQtWR0kcNnQp-10" edge="1">
          <mxGeometry width="50" height="50" relative="1" as="geometry">
            <mxPoint x="-396.83" y="660" as="sourcePoint" />
            <mxPoint x="-396.83" y="590" as="targetPoint" />
          </mxGeometry>
        </mxCell>
        <mxCell id="2EhN6xJvDQtWR0kcNnQp-14" value="" style="endArrow=none;html=1;entryX=0.5;entryY=0;entryDx=0;entryDy=0;strokeColor=#A680B8;strokeWidth=2;" parent="1" edge="1">
          <mxGeometry width="50" height="50" relative="1" as="geometry">
            <mxPoint x="-396.49999999999994" y="1010" as="sourcePoint" />
            <mxPoint x="-395.67" y="900" as="targetPoint" />
          </mxGeometry>
        </mxCell>
        <mxCell id="2EhN6xJvDQtWR0kcNnQp-17" value="" style="endArrow=none;html=1;entryX=0.5;entryY=0;entryDx=0;entryDy=0;exitX=1;exitY=0.5;exitDx=0;exitDy=0;strokeWidth=2;strokeColor=#A680B8;" parent="1" source="2EhN6xJvDQtWR0kcNnQp-10" edge="1">
          <mxGeometry width="50" height="50" relative="1" as="geometry">
            <mxPoint x="-176.83" y="779.5" as="sourcePoint" />
            <mxPoint x="-276.0000000000001" y="779.5" as="targetPoint" />
          </mxGeometry>
        </mxCell>
        <mxCell id="2EhN6xJvDQtWR0kcNnQp-18" value="" style="endArrow=none;html=1;entryX=0.5;entryY=0;entryDx=0;entryDy=0;exitX=1;exitY=0.5;exitDx=0;exitDy=0;strokeColor=#A680B8;strokeWidth=2;" parent="1" edge="1">
          <mxGeometry width="50" height="50" relative="1" as="geometry">
            <mxPoint x="-516" y="780" as="sourcePoint" />
            <mxPoint x="-626" y="779.5" as="targetPoint" />
          </mxGeometry>
        </mxCell>
        <mxCell id="2EhN6xJvDQtWR0kcNnQp-23" value="[0]" style="text;html=1;strokeColor=none;fillColor=none;align=center;verticalAlign=middle;whiteSpace=wrap;fontSize=25;fontFamily=Comic Sans MS;fontColor=#FF9933;fontStyle=1;horizontal=1;labelBackgroundColor=none;labelBorderColor=none;" parent="1" vertex="1">
          <mxGeometry x="-366" y="600" width="60" height="30" as="geometry" />
        </mxCell>
        <mxCell id="2EhN6xJvDQtWR0kcNnQp-24" value="[7]" style="text;html=1;strokeColor=none;fillColor=none;align=center;verticalAlign=middle;whiteSpace=wrap;fontSize=25;fontFamily=Comic Sans MS;fontColor=#FF9933;fontStyle=1;horizontal=1;labelBackgroundColor=none;labelBorderColor=none;" parent="1" vertex="1">
          <mxGeometry x="-496" y="600" width="60" height="30" as="geometry" />
        </mxCell>
        <mxCell id="2EhN6xJvDQtWR0kcNnQp-25" value="[6]" style="text;html=1;strokeColor=none;fillColor=none;align=center;verticalAlign=middle;whiteSpace=wrap;fontSize=25;fontFamily=Comic Sans MS;fontColor=#FF9933;fontStyle=1;horizontal=1;labelBackgroundColor=none;labelBorderColor=none;" parent="1" vertex="1">
          <mxGeometry x="-586" y="700" width="60" height="30" as="geometry" />
        </mxCell>
        <mxCell id="2EhN6xJvDQtWR0kcNnQp-26" value="[5]" style="text;html=1;strokeColor=none;fillColor=none;align=center;verticalAlign=middle;whiteSpace=wrap;fontSize=25;fontFamily=Comic Sans MS;fontColor=#FF9933;fontStyle=1;horizontal=1;labelBackgroundColor=none;labelBorderColor=none;" parent="1" vertex="1">
          <mxGeometry x="-596" y="830" width="60" height="30" as="geometry" />
        </mxCell>
        <mxCell id="2EhN6xJvDQtWR0kcNnQp-27" value="[4]" style="text;html=1;strokeColor=none;fillColor=none;align=center;verticalAlign=middle;whiteSpace=wrap;fontSize=25;fontFamily=Comic Sans MS;fontColor=#FF9933;fontStyle=1;horizontal=1;labelBackgroundColor=none;labelBorderColor=none;" parent="1" vertex="1">
          <mxGeometry x="-496" y="920" width="60" height="30" as="geometry" />
        </mxCell>
        <mxCell id="2EhN6xJvDQtWR0kcNnQp-28" value="[1]" style="text;html=1;strokeColor=none;fillColor=none;align=center;verticalAlign=middle;whiteSpace=wrap;fontSize=25;fontFamily=Comic Sans MS;fontColor=#FF9933;fontStyle=1;horizontal=1;labelBackgroundColor=none;labelBorderColor=none;" parent="1" vertex="1">
          <mxGeometry x="-272" y="690" width="60" height="30" as="geometry" />
        </mxCell>
        <mxCell id="2EhN6xJvDQtWR0kcNnQp-29" value="[2]" style="text;html=1;strokeColor=none;fillColor=none;align=center;verticalAlign=middle;whiteSpace=wrap;fontSize=25;fontFamily=Comic Sans MS;fontColor=#FF9933;fontStyle=1;horizontal=1;labelBackgroundColor=none;labelBorderColor=none;" parent="1" vertex="1">
          <mxGeometry x="-266" y="830" width="60" height="30" as="geometry" />
        </mxCell>
        <mxCell id="2EhN6xJvDQtWR0kcNnQp-30" value="[3]" style="text;html=1;strokeColor=none;fillColor=none;align=center;verticalAlign=middle;whiteSpace=wrap;fontSize=25;fontFamily=Comic Sans MS;fontColor=#FF9933;fontStyle=1;horizontal=1;labelBackgroundColor=none;labelBorderColor=none;" parent="1" vertex="1">
          <mxGeometry x="-356" y="930" width="60" height="30" as="geometry" />
        </mxCell>
        <mxCell id="2EhN6xJvDQtWR0kcNnQp-31" value="front" style="whiteSpace=wrap;html=1;shape=mxgraph.basic.oval_callout;labelBackgroundColor=none;fontFamily=Comic Sans MS;fontSize=25;fontColor=#0000FF;fillColor=default;gradientDirection=radial;verticalAlign=middle;strokeColor=none;gradientColor=#FFCC99;" parent="1" vertex="1">
          <mxGeometry x="-369" y="485" width="110" height="100" as="geometry" />
        </mxCell>
        <mxCell id="2EhN6xJvDQtWR0kcNnQp-34" value="进队：&lt;br style=&quot;font-size: 30px;&quot;&gt;&lt;font color=&quot;#000000&quot; style=&quot;font-size: 30px;&quot;&gt;rear+1&lt;/font&gt;&lt;br style=&quot;font-size: 30px;&quot;&gt;&lt;br style=&quot;font-size: 30px;&quot;&gt;出队：&lt;br style=&quot;font-size: 30px;&quot;&gt;&lt;font color=&quot;#000000&quot; style=&quot;font-size: 30px;&quot;&gt;front+1&lt;/font&gt;" style="text;html=1;strokeColor=none;fillColor=none;align=left;verticalAlign=top;whiteSpace=wrap;labelBackgroundColor=none;fontFamily=Comic Sans MS;fontSize=30;fontColor=#FF0000;" parent="1" vertex="1">
          <mxGeometry x="-140" y="690" width="140" height="210" as="geometry" />
        </mxCell>
        <mxCell id="2EhN6xJvDQtWR0kcNnQp-35" value="front： 第一个元素的前一个位置&lt;br&gt;rear：&amp;nbsp; &amp;nbsp;队尾元素位置" style="text;html=1;strokeColor=none;fillColor=none;align=left;verticalAlign=top;whiteSpace=wrap;labelBackgroundColor=none;fontFamily=Comic Sans MS;fontSize=30;fontColor=#FF0000;horizontal=1;" parent="1" vertex="1">
          <mxGeometry x="-816" y="480" width="470" height="100" as="geometry" />
        </mxCell>
        <mxCell id="2EhN6xJvDQtWR0kcNnQp-36" style="edgeStyle=none;orthogonalLoop=1;jettySize=auto;html=1;exitX=1;exitY=0.5;exitDx=0;exitDy=0;fontFamily=Comic Sans MS;fontSize=30;fontColor=#FF0000;startArrow=none;startFill=0;endArrow=none;endFill=0;strokeColor=#A680B8;strokeWidth=2;" parent="1" source="2EhN6xJvDQtWR0kcNnQp-35" target="2EhN6xJvDQtWR0kcNnQp-35" edge="1">
          <mxGeometry relative="1" as="geometry" />
        </mxCell>
        <mxCell id="2EhN6xJvDQtWR0kcNnQp-37" value="rear" style="whiteSpace=wrap;html=1;shape=mxgraph.basic.oval_callout;labelBackgroundColor=none;fontFamily=Comic Sans MS;fontSize=25;fontColor=#0000FF;fillColor=default;gradientDirection=radial;verticalAlign=middle;strokeColor=none;gradientColor=#FFCC99;" parent="1" vertex="1">
          <mxGeometry x="-296" y="530" width="110" height="100" as="geometry" />
        </mxCell>
        <mxCell id="Fw_NiBfXuIxcdr005MOq-1" value="ios" style="whiteSpace=wrap;html=1;fontSize=24;fontFamily=Comic Sans MS;fontStyle=1;strokeWidth=2;fontColor=#0000FF;" parent="1" vertex="1">
          <mxGeometry x="331" y="320" width="115" height="45" as="geometry" />
        </mxCell>
        <mxCell id="Fw_NiBfXuIxcdr005MOq-2" value="istream" style="whiteSpace=wrap;html=1;fontSize=24;fontFamily=Comic Sans MS;fontStyle=1;strokeWidth=2;fontColor=#0000FF;" parent="1" vertex="1">
          <mxGeometry x="193.5" y="390" width="115" height="45" as="geometry" />
        </mxCell>
        <mxCell id="Fw_NiBfXuIxcdr005MOq-3" value="ostream" style="whiteSpace=wrap;html=1;fontSize=24;fontFamily=Comic Sans MS;fontStyle=1;strokeWidth=2;fontColor=#0000FF;" parent="1" vertex="1">
          <mxGeometry x="471" y="390" width="115" height="45" as="geometry" />
        </mxCell>
        <mxCell id="Fw_NiBfXuIxcdr005MOq-4" value="ifstream" style="whiteSpace=wrap;html=1;fontSize=24;fontFamily=Comic Sans MS;fontStyle=1;strokeWidth=2;fontColor=#0000FF;" parent="1" vertex="1">
          <mxGeometry x="50" y="475" width="115" height="45" as="geometry" />
        </mxCell>
        <mxCell id="Fw_NiBfXuIxcdr005MOq-6" value="ofstream" style="whiteSpace=wrap;html=1;fontSize=24;fontFamily=Comic Sans MS;fontStyle=1;strokeWidth=2;fontColor=#0000FF;" parent="1" vertex="1">
          <mxGeometry x="621" y="475" width="115" height="45" as="geometry" />
        </mxCell>
        <mxCell id="Fw_NiBfXuIxcdr005MOq-7" value="fstream" style="whiteSpace=wrap;html=1;fontSize=24;fontFamily=Comic Sans MS;fontStyle=1;strokeWidth=2;fontColor=#0000FF;" parent="1" vertex="1">
          <mxGeometry x="333.5" y="580" width="115" height="45" as="geometry" />
        </mxCell>
        <mxCell id="Fw_NiBfXuIxcdr005MOq-8" value="iostream" style="whiteSpace=wrap;html=1;fontSize=24;fontFamily=Comic Sans MS;fontStyle=1;strokeWidth=2;fontColor=#0000FF;" parent="1" vertex="1">
          <mxGeometry x="333.5" y="475" width="115" height="45" as="geometry" />
        </mxCell>
        <mxCell id="Fw_NiBfXuIxcdr005MOq-9" value="" style="endArrow=classic;html=1;fontFamily=Comic Sans MS;fontSize=24;strokeWidth=2;strokeColor=#FF0000;entryX=0.5;entryY=0;entryDx=0;entryDy=0;" parent="1" target="Fw_NiBfXuIxcdr005MOq-2" edge="1">
          <mxGeometry width="50" height="50" relative="1" as="geometry">
            <mxPoint x="330" y="350" as="sourcePoint" />
            <mxPoint x="280" y="390" as="targetPoint" />
          </mxGeometry>
        </mxCell>
        <mxCell id="Fw_NiBfXuIxcdr005MOq-11" value="" style="endArrow=classic;html=1;fontFamily=Comic Sans MS;fontSize=24;strokeWidth=2;strokeColor=#FF0000;entryX=0.5;entryY=0;entryDx=0;entryDy=0;exitX=1;exitY=0.5;exitDx=0;exitDy=0;" parent="1" source="Fw_NiBfXuIxcdr005MOq-2" target="Fw_NiBfXuIxcdr005MOq-8" edge="1">
          <mxGeometry width="50" height="50" relative="1" as="geometry">
            <mxPoint x="365" y="435" as="sourcePoint" />
            <mxPoint x="286" y="475" as="targetPoint" />
          </mxGeometry>
        </mxCell>
        <mxCell id="Fw_NiBfXuIxcdr005MOq-13" value="" style="endArrow=classic;html=1;fontFamily=Comic Sans MS;fontSize=24;strokeWidth=2;strokeColor=#FF0000;entryX=0.5;entryY=0;entryDx=0;entryDy=0;exitX=1;exitY=0.5;exitDx=0;exitDy=0;" parent="1" source="Fw_NiBfXuIxcdr005MOq-1" target="Fw_NiBfXuIxcdr005MOq-3" edge="1">
          <mxGeometry width="50" height="50" relative="1" as="geometry">
            <mxPoint x="469" y="340" as="sourcePoint" />
            <mxPoint x="390" y="380" as="targetPoint" />
          </mxGeometry>
        </mxCell>
        <mxCell id="Fw_NiBfXuIxcdr005MOq-14" value="" style="endArrow=classic;html=1;fontFamily=Comic Sans MS;fontSize=24;strokeWidth=2;strokeColor=#FF0000;entryX=0.5;entryY=0;entryDx=0;entryDy=0;exitX=1;exitY=0.5;exitDx=0;exitDy=0;" parent="1" source="Fw_NiBfXuIxcdr005MOq-3" target="Fw_NiBfXuIxcdr005MOq-6" edge="1">
          <mxGeometry width="50" height="50" relative="1" as="geometry">
            <mxPoint x="604.5" y="420" as="sourcePoint" />
            <mxPoint x="525.5" y="460" as="targetPoint" />
          </mxGeometry>
        </mxCell>
        <mxCell id="Fw_NiBfXuIxcdr005MOq-15" value="" style="endArrow=classic;html=1;fontFamily=Comic Sans MS;fontSize=24;strokeWidth=2;strokeColor=#FF0000;entryX=0.5;entryY=0;entryDx=0;entryDy=0;exitX=0;exitY=0.5;exitDx=0;exitDy=0;" parent="1" source="Fw_NiBfXuIxcdr005MOq-3" target="Fw_NiBfXuIxcdr005MOq-8" edge="1">
          <mxGeometry width="50" height="50" relative="1" as="geometry">
            <mxPoint x="469" y="420" as="sourcePoint" />
            <mxPoint x="390" y="460" as="targetPoint" />
          </mxGeometry>
        </mxCell>
        <mxCell id="Fw_NiBfXuIxcdr005MOq-16" value="" style="endArrow=classic;html=1;fontFamily=Comic Sans MS;fontSize=24;strokeWidth=2;strokeColor=#FF0000;entryX=0.5;entryY=0;entryDx=0;entryDy=0;exitX=0.5;exitY=1;exitDx=0;exitDy=0;" parent="1" source="Fw_NiBfXuIxcdr005MOq-8" target="Fw_NiBfXuIxcdr005MOq-7" edge="1">
          <mxGeometry width="50" height="50" relative="1" as="geometry">
            <mxPoint x="390" y="520" as="sourcePoint" />
            <mxPoint x="311" y="560" as="targetPoint" />
          </mxGeometry>
        </mxCell>
        <mxCell id="Fw_NiBfXuIxcdr005MOq-17" value="" style="endArrow=classic;html=1;fontFamily=Comic Sans MS;fontSize=24;strokeWidth=2;strokeColor=#FF0000;entryX=0.5;entryY=0;entryDx=0;entryDy=0;exitX=0;exitY=0.5;exitDx=0;exitDy=0;" parent="1" source="Fw_NiBfXuIxcdr005MOq-2" target="Fw_NiBfXuIxcdr005MOq-4" edge="1">
          <mxGeometry width="50" height="50" relative="1" as="geometry">
            <mxPoint x="193.5" y="420" as="sourcePoint" />
            <mxPoint x="114.5" y="460" as="targetPoint" />
          </mxGeometry>
        </mxCell>
        <mxCell id="Fw_NiBfXuIxcdr005MOq-18" value="基类" style="text;html=1;align=center;verticalAlign=middle;resizable=0;points=[];autosize=1;strokeColor=none;fillColor=none;fontSize=24;fontFamily=Comic Sans MS;fontColor=#0000FF;" parent="1" vertex="1">
          <mxGeometry x="361" y="280" width="60" height="30" as="geometry" />
        </mxCell>
        <mxCell id="Fw_NiBfXuIxcdr005MOq-19" value="读文件" style="text;html=1;align=center;verticalAlign=middle;resizable=0;points=[];autosize=1;strokeColor=none;fillColor=none;fontSize=24;fontFamily=Comic Sans MS;fontColor=#0000FF;" parent="1" vertex="1">
          <mxGeometry x="62.5" y="530" width="90" height="30" as="geometry" />
        </mxCell>
        <mxCell id="Fw_NiBfXuIxcdr005MOq-20" value="写文件" style="text;html=1;align=center;verticalAlign=middle;resizable=0;points=[];autosize=1;strokeColor=none;fillColor=none;fontSize=24;fontFamily=Comic Sans MS;fontColor=#0000FF;" parent="1" vertex="1">
          <mxGeometry x="633.5" y="530" width="90" height="30" as="geometry" />
        </mxCell>
        <mxCell id="Fw_NiBfXuIxcdr005MOq-21" value="既能读也能写" style="text;html=1;align=center;verticalAlign=middle;resizable=0;points=[];autosize=1;strokeColor=none;fillColor=none;fontSize=24;fontFamily=Comic Sans MS;fontColor=#0000FF;" parent="1" vertex="1">
          <mxGeometry x="308.5" y="630" width="160" height="30" as="geometry" />
        </mxCell>
        <mxCell id="Fw_NiBfXuIxcdr005MOq-22" value="输入" style="text;html=1;align=center;verticalAlign=middle;resizable=0;points=[];autosize=1;strokeColor=none;fillColor=none;fontSize=24;fontFamily=Comic Sans MS;fontColor=#0000FF;" parent="1" vertex="1">
          <mxGeometry x="221" y="335" width="60" height="30" as="geometry" />
        </mxCell>
        <mxCell id="Fw_NiBfXuIxcdr005MOq-23" value="输出" style="text;html=1;align=center;verticalAlign=middle;resizable=0;points=[];autosize=1;strokeColor=none;fillColor=none;fontSize=24;fontFamily=Comic Sans MS;fontColor=#0000FF;" parent="1" vertex="1">
          <mxGeometry x="498.5" y="335" width="60" height="30" as="geometry" />
        </mxCell>
        <mxCell id="q-G88GFs970yYDlIafJL-1" value="58" style="ellipse;whiteSpace=wrap;html=1;aspect=fixed;fontSize=16;fontColor=#0000FF;" parent="1" vertex="1">
          <mxGeometry x="229" y="830" width="40" height="40" as="geometry" />
        </mxCell>
        <mxCell id="q-G88GFs970yYDlIafJL-2" value="44" style="ellipse;whiteSpace=wrap;html=1;aspect=fixed;fontSize=16;fontColor=#0000FF;" parent="1" vertex="1">
          <mxGeometry x="172.5" y="870" width="40" height="40" as="geometry" />
        </mxCell>
        <mxCell id="q-G88GFs970yYDlIafJL-3" value="35" style="ellipse;whiteSpace=wrap;html=1;aspect=fixed;fontSize=16;fontColor=#0000FF;" parent="1" vertex="1">
          <mxGeometry x="120" y="920" width="40" height="40" as="geometry" />
        </mxCell>
        <mxCell id="q-G88GFs970yYDlIafJL-4" value="31" style="ellipse;whiteSpace=wrap;html=1;aspect=fixed;fontSize=16;fontColor=#0000FF;" parent="1" vertex="1">
          <mxGeometry x="220" y="920" width="40" height="40" as="geometry" />
        </mxCell>
        <mxCell id="q-G88GFs970yYDlIafJL-5" value="25" style="ellipse;whiteSpace=wrap;html=1;aspect=fixed;fontSize=16;fontColor=#0000FF;" parent="1" vertex="1">
          <mxGeometry x="279" y="870" width="40" height="40" as="geometry" />
        </mxCell>
        <mxCell id="q-G88GFs970yYDlIafJL-6" value="" style="endArrow=classic;html=1;fontSize=16;fontColor=#0000FF;entryX=1;entryY=0;entryDx=0;entryDy=0;exitX=0;exitY=0.5;exitDx=0;exitDy=0;" parent="1" source="q-G88GFs970yYDlIafJL-1" target="q-G88GFs970yYDlIafJL-2" edge="1">
          <mxGeometry width="50" height="50" relative="1" as="geometry">
            <mxPoint x="49" y="880" as="sourcePoint" />
            <mxPoint x="99" y="830" as="targetPoint" />
          </mxGeometry>
        </mxCell>
        <mxCell id="q-G88GFs970yYDlIafJL-11" value="" style="endArrow=classic;html=1;fontSize=16;fontColor=#0000FF;entryX=0;entryY=0;entryDx=0;entryDy=0;exitX=1;exitY=0.5;exitDx=0;exitDy=0;" parent="1" source="q-G88GFs970yYDlIafJL-1" target="q-G88GFs970yYDlIafJL-5" edge="1">
          <mxGeometry width="50" height="50" relative="1" as="geometry">
            <mxPoint x="268.9999999999998" y="860" as="sourcePoint" />
            <mxPoint x="246.64213562373106" y="885.8578643762689" as="targetPoint" />
          </mxGeometry>
        </mxCell>
        <mxCell id="q-G88GFs970yYDlIafJL-12" value="" style="endArrow=classic;html=1;fontSize=16;fontColor=#0000FF;entryX=0;entryY=0;entryDx=0;entryDy=0;exitX=1;exitY=1;exitDx=0;exitDy=0;" parent="1" source="q-G88GFs970yYDlIafJL-2" target="q-G88GFs970yYDlIafJL-4" edge="1">
          <mxGeometry width="50" height="50" relative="1" as="geometry">
            <mxPoint x="222.3599999999998" y="910" as="sourcePoint" />
            <mxPoint x="200.00213562373108" y="935.8578643762689" as="targetPoint" />
          </mxGeometry>
        </mxCell>
        <mxCell id="q-G88GFs970yYDlIafJL-13" value="" style="endArrow=classic;html=1;fontSize=16;fontColor=#0000FF;entryX=1;entryY=0;entryDx=0;entryDy=0;exitX=0;exitY=1;exitDx=0;exitDy=0;" parent="1" source="q-G88GFs970yYDlIafJL-2" target="q-G88GFs970yYDlIafJL-3" edge="1">
          <mxGeometry width="50" height="50" relative="1" as="geometry">
            <mxPoint x="278.9999999999998" y="900" as="sourcePoint" />
            <mxPoint x="256.64213562373106" y="925.8578643762689" as="targetPoint" />
          </mxGeometry>
        </mxCell>
        <mxCell id="q-G88GFs970yYDlIafJL-14" value="[1]" style="text;html=1;align=center;verticalAlign=middle;resizable=0;points=[];autosize=1;strokeColor=none;fillColor=none;fontSize=16;fontColor=#FF0000;" parent="1" vertex="1">
          <mxGeometry x="194" y="830" width="30" height="20" as="geometry" />
        </mxCell>
        <mxCell id="q-G88GFs970yYDlIafJL-15" value="[2]" style="text;html=1;align=center;verticalAlign=middle;resizable=0;points=[];autosize=1;strokeColor=none;fillColor=none;fontSize=16;fontColor=#FF0000;" parent="1" vertex="1">
          <mxGeometry x="129" y="880" width="30" height="20" as="geometry" />
        </mxCell>
        <mxCell id="q-G88GFs970yYDlIafJL-16" value="[3]" style="text;html=1;align=center;verticalAlign=middle;resizable=0;points=[];autosize=1;strokeColor=none;fillColor=none;fontSize=16;fontColor=#FF0000;" parent="1" vertex="1">
          <mxGeometry x="249" y="880" width="30" height="20" as="geometry" />
        </mxCell>
        <mxCell id="q-G88GFs970yYDlIafJL-17" value="[4]" style="text;html=1;align=center;verticalAlign=middle;resizable=0;points=[];autosize=1;strokeColor=none;fillColor=none;fontSize=16;fontColor=#FF0000;" parent="1" vertex="1">
          <mxGeometry x="89" y="930" width="30" height="20" as="geometry" />
        </mxCell>
        <mxCell id="q-G88GFs970yYDlIafJL-18" value="[5]" style="text;html=1;align=center;verticalAlign=middle;resizable=0;points=[];autosize=1;strokeColor=none;fillColor=none;fontSize=16;fontColor=#FF0000;" parent="1" vertex="1">
          <mxGeometry x="190" y="930" width="30" height="20" as="geometry" />
        </mxCell>
        <mxCell id="q-G88GFs970yYDlIafJL-19" value="" style="endArrow=classic;html=1;fontSize=16;fontColor=#FF0000;strokeWidth=2;" parent="1" edge="1">
          <mxGeometry width="50" height="50" relative="1" as="geometry">
            <mxPoint x="340" y="910" as="sourcePoint" />
            <mxPoint x="480" y="910" as="targetPoint" />
          </mxGeometry>
        </mxCell>
        <mxCell id="q-G88GFs970yYDlIafJL-20" value="拿走树根58" style="text;html=1;align=center;verticalAlign=middle;resizable=0;points=[];autosize=1;strokeColor=none;fillColor=none;fontSize=17;fontColor=#FF0000;fontFamily=Comic Sans MS;fontStyle=1;" parent="1" vertex="1">
          <mxGeometry x="350" y="870" width="100" height="30" as="geometry" />
        </mxCell>
        <mxCell id="q-G88GFs970yYDlIafJL-21" value="&lt;font style=&quot;font-size: 17px&quot;&gt;&lt;span&gt;&lt;i&gt;31&lt;/i&gt;&lt;/span&gt;&lt;/font&gt;" style="ellipse;whiteSpace=wrap;html=1;aspect=fixed;fontSize=16;fontColor=#FF0000;fontStyle=1;" parent="1" vertex="1">
          <mxGeometry x="600" y="830" width="40" height="40" as="geometry" />
        </mxCell>
        <mxCell id="q-G88GFs970yYDlIafJL-22" value="44" style="ellipse;whiteSpace=wrap;html=1;aspect=fixed;fontSize=16;fontColor=#0000FF;" parent="1" vertex="1">
          <mxGeometry x="543.5" y="870" width="40" height="40" as="geometry" />
        </mxCell>
        <mxCell id="q-G88GFs970yYDlIafJL-23" value="35" style="ellipse;whiteSpace=wrap;html=1;aspect=fixed;fontSize=16;fontColor=#0000FF;" parent="1" vertex="1">
          <mxGeometry x="491" y="920" width="40" height="40" as="geometry" />
        </mxCell>
        <mxCell id="q-G88GFs970yYDlIafJL-25" value="25" style="ellipse;whiteSpace=wrap;html=1;aspect=fixed;fontSize=16;fontColor=#0000FF;" parent="1" vertex="1">
          <mxGeometry x="650" y="870" width="40" height="40" as="geometry" />
        </mxCell>
        <mxCell id="q-G88GFs970yYDlIafJL-26" value="" style="endArrow=classic;html=1;fontSize=16;fontColor=#0000FF;entryX=1;entryY=0;entryDx=0;entryDy=0;exitX=0;exitY=0.5;exitDx=0;exitDy=0;" parent="1" source="q-G88GFs970yYDlIafJL-21" target="q-G88GFs970yYDlIafJL-22" edge="1">
          <mxGeometry width="50" height="50" relative="1" as="geometry">
            <mxPoint x="420" y="880" as="sourcePoint" />
            <mxPoint x="470" y="830" as="targetPoint" />
          </mxGeometry>
        </mxCell>
        <mxCell id="q-G88GFs970yYDlIafJL-27" value="" style="endArrow=classic;html=1;fontSize=16;fontColor=#0000FF;entryX=0;entryY=0;entryDx=0;entryDy=0;exitX=1;exitY=0.5;exitDx=0;exitDy=0;" parent="1" source="q-G88GFs970yYDlIafJL-21" target="q-G88GFs970yYDlIafJL-25" edge="1">
          <mxGeometry width="50" height="50" relative="1" as="geometry">
            <mxPoint x="639.9999999999998" y="860" as="sourcePoint" />
            <mxPoint x="617.6421356237311" y="885.8578643762689" as="targetPoint" />
          </mxGeometry>
        </mxCell>
        <mxCell id="q-G88GFs970yYDlIafJL-29" value="" style="endArrow=classic;html=1;fontSize=16;fontColor=#0000FF;entryX=1;entryY=0;entryDx=0;entryDy=0;exitX=0;exitY=1;exitDx=0;exitDy=0;" parent="1" source="q-G88GFs970yYDlIafJL-22" target="q-G88GFs970yYDlIafJL-23" edge="1">
          <mxGeometry width="50" height="50" relative="1" as="geometry">
            <mxPoint x="649.9999999999998" y="900" as="sourcePoint" />
            <mxPoint x="627.6421356237311" y="925.8578643762689" as="targetPoint" />
          </mxGeometry>
        </mxCell>
        <mxCell id="q-G88GFs970yYDlIafJL-30" value="[1]" style="text;html=1;align=center;verticalAlign=middle;resizable=0;points=[];autosize=1;strokeColor=none;fillColor=none;fontSize=16;fontColor=#FF0000;" parent="1" vertex="1">
          <mxGeometry x="565" y="830" width="30" height="20" as="geometry" />
        </mxCell>
        <mxCell id="q-G88GFs970yYDlIafJL-31" value="[2]" style="text;html=1;align=center;verticalAlign=middle;resizable=0;points=[];autosize=1;strokeColor=none;fillColor=none;fontSize=16;fontColor=#FF0000;" parent="1" vertex="1">
          <mxGeometry x="500" y="880" width="30" height="20" as="geometry" />
        </mxCell>
        <mxCell id="q-G88GFs970yYDlIafJL-32" value="[3]" style="text;html=1;align=center;verticalAlign=middle;resizable=0;points=[];autosize=1;strokeColor=none;fillColor=none;fontSize=16;fontColor=#FF0000;" parent="1" vertex="1">
          <mxGeometry x="620" y="880" width="30" height="20" as="geometry" />
        </mxCell>
        <mxCell id="q-G88GFs970yYDlIafJL-33" value="[4]" style="text;html=1;align=center;verticalAlign=middle;resizable=0;points=[];autosize=1;strokeColor=none;fillColor=none;fontSize=16;fontColor=#FF0000;" parent="1" vertex="1">
          <mxGeometry x="460" y="930" width="30" height="20" as="geometry" />
        </mxCell>
        <mxCell id="q-G88GFs970yYDlIafJL-35" value="31先替上去" style="text;html=1;align=center;verticalAlign=middle;resizable=0;points=[];autosize=1;strokeColor=none;fillColor=none;fontSize=17;fontFamily=Comic Sans MS;fontColor=#FF0000;fontStyle=1;" parent="1" vertex="1">
          <mxGeometry x="350" y="918" width="100" height="30" as="geometry" />
        </mxCell>
        <mxCell id="W6V9eiND0gAPJdl6T1Mo-1" value="30" style="ellipse;whiteSpace=wrap;html=1;aspect=fixed;fontSize=16;fontColor=#0000FF;" parent="1" vertex="1">
          <mxGeometry x="216.32" y="1215" width="40" height="40" as="geometry" />
        </mxCell>
        <mxCell id="W6V9eiND0gAPJdl6T1Mo-2" value="15" style="ellipse;whiteSpace=wrap;html=1;aspect=fixed;fontSize=16;fontColor=#0000FF;" parent="1" vertex="1">
          <mxGeometry x="144.82" y="1255" width="40" height="40" as="geometry" />
        </mxCell>
        <mxCell id="W6V9eiND0gAPJdl6T1Mo-3" value="50" style="ellipse;whiteSpace=wrap;html=1;aspect=fixed;fontSize=16;fontColor=#0000FF;" parent="1" vertex="1">
          <mxGeometry x="352.32" y="1295" width="40" height="40" as="geometry" />
        </mxCell>
        <mxCell id="W6V9eiND0gAPJdl6T1Mo-4" value="41" style="ellipse;whiteSpace=wrap;html=1;aspect=fixed;fontSize=16;fontColor=#0000FF;" parent="1" vertex="1">
          <mxGeometry x="291.32" y="1255" width="40" height="40" as="geometry" />
        </mxCell>
        <mxCell id="W6V9eiND0gAPJdl6T1Mo-5" value="33" style="ellipse;whiteSpace=wrap;html=1;aspect=fixed;fontSize=16;fontColor=#0000FF;" parent="1" vertex="1">
          <mxGeometry x="233.75" y="1295" width="40" height="40" as="geometry" />
        </mxCell>
        <mxCell id="W6V9eiND0gAPJdl6T1Mo-6" value="35" style="ellipse;whiteSpace=wrap;html=1;aspect=fixed;fontSize=16;fontColor=#0000FF;fillColor=#A6A6A6;" parent="1" vertex="1">
          <mxGeometry x="293.32" y="1335" width="40" height="40" as="geometry" />
        </mxCell>
        <mxCell id="W6V9eiND0gAPJdl6T1Mo-7" value="" style="endArrow=none;html=1;fontSize=16;fontColor=#0000FF;entryX=1;entryY=0;entryDx=0;entryDy=0;exitX=0;exitY=0.5;exitDx=0;exitDy=0;endFill=0;" parent="1" source="W6V9eiND0gAPJdl6T1Mo-1" target="W6V9eiND0gAPJdl6T1Mo-2" edge="1">
          <mxGeometry width="50" height="50" relative="1" as="geometry">
            <mxPoint x="173.0378643762694" y="1224.1421356237308" as="sourcePoint" />
            <mxPoint x="148.82213562373062" y="1245.8578643762692" as="targetPoint" />
          </mxGeometry>
        </mxCell>
        <mxCell id="W6V9eiND0gAPJdl6T1Mo-8" value="" style="endArrow=none;html=1;fontSize=16;fontColor=#0000FF;entryX=0;entryY=0;entryDx=0;entryDy=0;exitX=1;exitY=0.5;exitDx=0;exitDy=0;endFill=0;" parent="1" source="W6V9eiND0gAPJdl6T1Mo-1" target="W6V9eiND0gAPJdl6T1Mo-4" edge="1">
          <mxGeometry width="50" height="50" relative="1" as="geometry">
            <mxPoint x="306.32" y="1215" as="sourcePoint" />
            <mxPoint x="290.4621356237306" y="1240.8578643762692" as="targetPoint" />
          </mxGeometry>
        </mxCell>
        <mxCell id="W6V9eiND0gAPJdl6T1Mo-9" value="" style="endArrow=none;html=1;fontSize=16;fontColor=#0000FF;entryX=0;entryY=0;entryDx=0;entryDy=0;exitX=1;exitY=1;exitDx=0;exitDy=0;endFill=0;" parent="1" source="W6V9eiND0gAPJdl6T1Mo-4" target="W6V9eiND0gAPJdl6T1Mo-3" edge="1">
          <mxGeometry width="50" height="50" relative="1" as="geometry">
            <mxPoint x="315.32" y="1295" as="sourcePoint" />
            <mxPoint x="299.4621356237306" y="1320.8578643762692" as="targetPoint" />
          </mxGeometry>
        </mxCell>
        <mxCell id="W6V9eiND0gAPJdl6T1Mo-12" value="" style="endArrow=none;html=1;fontSize=16;fontColor=#0000FF;entryX=1;entryY=0;entryDx=0;entryDy=0;exitX=0;exitY=1;exitDx=0;exitDy=0;endFill=0;" parent="1" source="W6V9eiND0gAPJdl6T1Mo-4" target="W6V9eiND0gAPJdl6T1Mo-5" edge="1">
          <mxGeometry width="50" height="50" relative="1" as="geometry">
            <mxPoint x="250.32" y="1295" as="sourcePoint" />
            <mxPoint x="234.4621356237306" y="1320.8578643762692" as="targetPoint" />
          </mxGeometry>
        </mxCell>
        <mxCell id="W6V9eiND0gAPJdl6T1Mo-15" value="完成插入35之后将根节点的值返回，挂在某个节点的左边或者右边" style="text;html=1;align=center;verticalAlign=middle;resizable=0;points=[];autosize=1;strokeColor=none;fillColor=none;" parent="1" vertex="1">
          <mxGeometry x="78.5" y="1170" width="370" height="20" as="geometry" />
        </mxCell>
        <mxCell id="W6V9eiND0gAPJdl6T1Mo-16" value="35&amp;gt;30，说明是插在30的右子树上，插入35之后，返回&lt;font color=&quot;#0000ff&quot;&gt;30右子树根节点的值&lt;/font&gt;，挂在30的right上。" style="text;html=1;align=center;verticalAlign=middle;resizable=0;points=[];autosize=1;strokeColor=none;fillColor=none;" parent="1" vertex="1">
          <mxGeometry x="23.98" y="1400" width="520" height="20" as="geometry" />
        </mxCell>
        <mxCell id="W6V9eiND0gAPJdl6T1Mo-17" value="35&amp;lt;41，插在41的左子树上，插入35之后，返回41左子树根节点的值，挂在41的left上。" style="text;html=1;align=center;verticalAlign=middle;resizable=0;points=[];autosize=1;strokeColor=none;fillColor=none;" parent="1" vertex="1">
          <mxGeometry x="43.980000000000004" y="1420" width="480" height="20" as="geometry" />
        </mxCell>
        <mxCell id="W6V9eiND0gAPJdl6T1Mo-18" value="35&amp;gt;33，插在33的右子树上，插入35之后，返回33右子树根节点的值，挂在33的right上。" style="text;html=1;align=center;verticalAlign=middle;resizable=0;points=[];autosize=1;strokeColor=none;fillColor=none;" parent="1" vertex="1">
          <mxGeometry x="38.980000000000004" y="1440" width="490" height="20" as="geometry" />
        </mxCell>
        <mxCell id="W6V9eiND0gAPJdl6T1Mo-22" value="" style="endArrow=none;html=1;fontSize=16;fontColor=#0000FF;entryX=1;entryY=1;entryDx=0;entryDy=0;exitX=0;exitY=0;exitDx=0;exitDy=0;endFill=0;" parent="1" source="W6V9eiND0gAPJdl6T1Mo-6" target="W6V9eiND0gAPJdl6T1Mo-5" edge="1">
          <mxGeometry width="50" height="50" relative="1" as="geometry">
            <mxPoint x="307.1778643762685" y="1299.1421356237306" as="sourcePoint" />
            <mxPoint x="277.8921356238246" y="1310.8578643761755" as="targetPoint" />
          </mxGeometry>
        </mxCell>
        <mxCell id="W6V9eiND0gAPJdl6T1Mo-26" value="" style="ellipse;whiteSpace=wrap;html=1;fontColor=#0000FF;fillColor=none;strokeColor=#FF0000;strokeWidth=2;" parent="1" vertex="1">
          <mxGeometry x="222.32" y="1250" width="180" height="130" as="geometry" />
        </mxCell>
        <mxCell id="W6V9eiND0gAPJdl6T1Mo-27" value="" style="endArrow=classic;html=1;fontColor=#0000FF;strokeColor=#CC6600;strokeWidth=2;" parent="1" edge="1">
          <mxGeometry width="50" height="50" relative="1" as="geometry">
            <mxPoint x="242.32" y="1240" as="sourcePoint" />
            <mxPoint x="262.32" y="1260" as="targetPoint" />
          </mxGeometry>
        </mxCell>
        <mxCell id="W6V9eiND0gAPJdl6T1Mo-29" value="" style="ellipse;whiteSpace=wrap;html=1;fontColor=#0000FF;strokeColor=#FF0000;strokeWidth=2;fillColor=none;rotation=-60;" parent="1" vertex="1">
          <mxGeometry x="253.32" y="1270" width="61.32" height="130" as="geometry" />
        </mxCell>
        <mxCell id="W6V9eiND0gAPJdl6T1Mo-30" value="" style="endArrow=classic;html=1;fontColor=#0000FF;strokeColor=#CC6600;strokeWidth=2;" parent="1" edge="1">
          <mxGeometry width="50" height="50" relative="1" as="geometry">
            <mxPoint x="301.47999999999996" y="1280" as="sourcePoint" />
            <mxPoint x="266.47999999999996" y="1295" as="targetPoint" />
          </mxGeometry>
        </mxCell>
        <mxCell id="GldbyRCsS9QSyJfhT_jN-1" value="5" style="ellipse;whiteSpace=wrap;html=1;aspect=fixed;fontSize=16;fontColor=#0000FF;" vertex="1" parent="1">
          <mxGeometry x="1200" y="595" width="40" height="40" as="geometry" />
        </mxCell>
        <mxCell id="GldbyRCsS9QSyJfhT_jN-2" value="4" style="ellipse;whiteSpace=wrap;html=1;aspect=fixed;fontSize=16;fontColor=#0000FF;" vertex="1" parent="1">
          <mxGeometry x="1140" y="635" width="40" height="40" as="geometry" />
        </mxCell>
        <mxCell id="GldbyRCsS9QSyJfhT_jN-3" value="10" style="ellipse;whiteSpace=wrap;html=1;aspect=fixed;fontSize=16;fontColor=#0000FF;" vertex="1" parent="1">
          <mxGeometry x="1260" y="635" width="40" height="40" as="geometry" />
        </mxCell>
        <mxCell id="GldbyRCsS9QSyJfhT_jN-4" value="8" style="ellipse;whiteSpace=wrap;html=1;aspect=fixed;fontSize=16;fontColor=#0000FF;" vertex="1" parent="1">
          <mxGeometry x="1220" y="675" width="40" height="40" as="geometry" />
        </mxCell>
        <mxCell id="GldbyRCsS9QSyJfhT_jN-5" value="14" style="ellipse;whiteSpace=wrap;html=1;aspect=fixed;fontSize=16;fontColor=#0000FF;" vertex="1" parent="1">
          <mxGeometry x="1300" y="675" width="40" height="40" as="geometry" />
        </mxCell>
        <mxCell id="GldbyRCsS9QSyJfhT_jN-6" value="15" style="ellipse;whiteSpace=wrap;html=1;aspect=fixed;fontSize=16;fontColor=#0000FF;fillColor=#999999;" vertex="1" parent="1">
          <mxGeometry x="1340" y="715" width="40" height="40" as="geometry" />
        </mxCell>
        <mxCell id="GldbyRCsS9QSyJfhT_jN-8" value="" style="endArrow=none;html=1;rounded=0;entryX=0;entryY=0.5;entryDx=0;entryDy=0;exitX=1;exitY=0;exitDx=0;exitDy=0;" edge="1" parent="1" source="GldbyRCsS9QSyJfhT_jN-2" target="GldbyRCsS9QSyJfhT_jN-1">
          <mxGeometry width="50" height="50" relative="1" as="geometry">
            <mxPoint x="1360" y="600" as="sourcePoint" />
            <mxPoint x="1410" y="550" as="targetPoint" />
          </mxGeometry>
        </mxCell>
        <mxCell id="GldbyRCsS9QSyJfhT_jN-9" value="" style="endArrow=none;html=1;rounded=0;entryX=1;entryY=0.5;entryDx=0;entryDy=0;exitX=0;exitY=0;exitDx=0;exitDy=0;" edge="1" parent="1" source="GldbyRCsS9QSyJfhT_jN-3" target="GldbyRCsS9QSyJfhT_jN-1">
          <mxGeometry width="50" height="50" relative="1" as="geometry">
            <mxPoint x="1267.0721356235451" y="610.8578643764545" as="sourcePoint" />
            <mxPoint x="1292.93" y="585" as="targetPoint" />
          </mxGeometry>
        </mxCell>
        <mxCell id="GldbyRCsS9QSyJfhT_jN-10" value="" style="endArrow=none;html=1;rounded=0;entryX=0;entryY=0;entryDx=0;entryDy=0;exitX=1;exitY=1;exitDx=0;exitDy=0;" edge="1" parent="1" source="GldbyRCsS9QSyJfhT_jN-3" target="GldbyRCsS9QSyJfhT_jN-5">
          <mxGeometry width="50" height="50" relative="1" as="geometry">
            <mxPoint x="1290" y="670" as="sourcePoint" />
            <mxPoint x="1342.93" y="589.57" as="targetPoint" />
          </mxGeometry>
        </mxCell>
        <mxCell id="GldbyRCsS9QSyJfhT_jN-15" value="" style="endArrow=none;html=1;rounded=0;entryX=0;entryY=1;entryDx=0;entryDy=0;exitX=1;exitY=0;exitDx=0;exitDy=0;" edge="1" parent="1" source="GldbyRCsS9QSyJfhT_jN-4" target="GldbyRCsS9QSyJfhT_jN-3">
          <mxGeometry width="50" height="50" relative="1" as="geometry">
            <mxPoint x="1244.142135623545" y="710.8578643764545" as="sourcePoint" />
            <mxPoint x="1270" y="685" as="targetPoint" />
          </mxGeometry>
        </mxCell>
        <mxCell id="GldbyRCsS9QSyJfhT_jN-16" value="" style="endArrow=none;html=1;rounded=0;entryX=1;entryY=1;entryDx=0;entryDy=0;exitX=0;exitY=0;exitDx=0;exitDy=0;dashed=1;strokeColor=#FF0000;strokeWidth=2;" edge="1" parent="1" source="GldbyRCsS9QSyJfhT_jN-6" target="GldbyRCsS9QSyJfhT_jN-5">
          <mxGeometry width="50" height="50" relative="1" as="geometry">
            <mxPoint x="1314.142135623545" y="729.9978643764545" as="sourcePoint" />
            <mxPoint x="1340" y="704.14" as="targetPoint" />
          </mxGeometry>
        </mxCell>
        <mxCell id="GldbyRCsS9QSyJfhT_jN-17" value="10" style="ellipse;whiteSpace=wrap;html=1;aspect=fixed;fontSize=16;fontColor=#0000FF;" vertex="1" parent="1">
          <mxGeometry x="1560" y="600" width="40" height="40" as="geometry" />
        </mxCell>
        <mxCell id="GldbyRCsS9QSyJfhT_jN-18" value="5" style="ellipse;whiteSpace=wrap;html=1;aspect=fixed;fontSize=16;fontColor=#0000FF;" vertex="1" parent="1">
          <mxGeometry x="1510" y="640" width="40" height="40" as="geometry" />
        </mxCell>
        <mxCell id="GldbyRCsS9QSyJfhT_jN-19" value="8" style="ellipse;whiteSpace=wrap;html=1;aspect=fixed;fontSize=16;fontColor=#0000FF;" vertex="1" parent="1">
          <mxGeometry x="1560" y="685" width="40" height="40" as="geometry" />
        </mxCell>
        <mxCell id="GldbyRCsS9QSyJfhT_jN-20" value="4" style="ellipse;whiteSpace=wrap;html=1;aspect=fixed;fontSize=16;fontColor=#0000FF;" vertex="1" parent="1">
          <mxGeometry x="1460" y="685" width="40" height="40" as="geometry" />
        </mxCell>
        <mxCell id="GldbyRCsS9QSyJfhT_jN-21" value="14" style="ellipse;whiteSpace=wrap;html=1;aspect=fixed;fontSize=16;fontColor=#0000FF;" vertex="1" parent="1">
          <mxGeometry x="1610" y="640" width="40" height="40" as="geometry" />
        </mxCell>
        <mxCell id="GldbyRCsS9QSyJfhT_jN-22" value="15" style="ellipse;whiteSpace=wrap;html=1;aspect=fixed;fontSize=16;fontColor=#0000FF;fillColor=#999999;" vertex="1" parent="1">
          <mxGeometry x="1650" y="685" width="40" height="40" as="geometry" />
        </mxCell>
        <mxCell id="GldbyRCsS9QSyJfhT_jN-23" value="" style="endArrow=none;html=1;rounded=0;entryX=0;entryY=0.5;entryDx=0;entryDy=0;exitX=1;exitY=0;exitDx=0;exitDy=0;" edge="1" parent="1" source="GldbyRCsS9QSyJfhT_jN-18" target="GldbyRCsS9QSyJfhT_jN-17">
          <mxGeometry width="50" height="50" relative="1" as="geometry">
            <mxPoint x="1730" y="605" as="sourcePoint" />
            <mxPoint x="1780" y="555" as="targetPoint" />
          </mxGeometry>
        </mxCell>
        <mxCell id="GldbyRCsS9QSyJfhT_jN-24" value="" style="endArrow=none;html=1;rounded=0;entryX=1;entryY=0.5;entryDx=0;entryDy=0;exitX=0;exitY=0;exitDx=0;exitDy=0;" edge="1" parent="1" source="GldbyRCsS9QSyJfhT_jN-21" target="GldbyRCsS9QSyJfhT_jN-17">
          <mxGeometry width="50" height="50" relative="1" as="geometry">
            <mxPoint x="1650" y="620" as="sourcePoint" />
            <mxPoint x="1662.93" y="590" as="targetPoint" />
          </mxGeometry>
        </mxCell>
        <mxCell id="GldbyRCsS9QSyJfhT_jN-27" value="" style="endArrow=none;html=1;rounded=0;entryX=1;entryY=1;entryDx=0;entryDy=0;exitX=0;exitY=0;exitDx=0;exitDy=0;dashed=1;strokeColor=#FF0000;strokeWidth=2;" edge="1" parent="1" source="GldbyRCsS9QSyJfhT_jN-22" target="GldbyRCsS9QSyJfhT_jN-21">
          <mxGeometry width="50" height="50" relative="1" as="geometry">
            <mxPoint x="1684.142135623545" y="734.9978643764545" as="sourcePoint" />
            <mxPoint x="1710" y="709.14" as="targetPoint" />
          </mxGeometry>
        </mxCell>
        <mxCell id="GldbyRCsS9QSyJfhT_jN-29" value="" style="endArrow=none;html=1;rounded=0;entryX=0;entryY=0;entryDx=0;entryDy=0;exitX=1;exitY=0.5;exitDx=0;exitDy=0;" edge="1" parent="1" source="GldbyRCsS9QSyJfhT_jN-18" target="GldbyRCsS9QSyJfhT_jN-19">
          <mxGeometry width="50" height="50" relative="1" as="geometry">
            <mxPoint x="1554.1421356237306" y="655.8578643762694" as="sourcePoint" />
            <mxPoint x="1570" y="630" as="targetPoint" />
          </mxGeometry>
        </mxCell>
        <mxCell id="GldbyRCsS9QSyJfhT_jN-30" value="" style="endArrow=none;html=1;rounded=0;entryX=1;entryY=0;entryDx=0;entryDy=0;exitX=0;exitY=0.5;exitDx=0;exitDy=0;" edge="1" parent="1" source="GldbyRCsS9QSyJfhT_jN-18" target="GldbyRCsS9QSyJfhT_jN-20">
          <mxGeometry width="50" height="50" relative="1" as="geometry">
            <mxPoint x="1564.1421356237306" y="665.8578643762694" as="sourcePoint" />
            <mxPoint x="1580" y="640" as="targetPoint" />
          </mxGeometry>
        </mxCell>
        <mxCell id="GldbyRCsS9QSyJfhT_jN-31" value="" style="endArrow=open;html=1;rounded=0;strokeColor=#FF0000;strokeWidth=3;endFill=0;" edge="1" parent="1">
          <mxGeometry width="50" height="50" relative="1" as="geometry">
            <mxPoint x="1360" y="660" as="sourcePoint" />
            <mxPoint x="1450" y="660" as="targetPoint" />
          </mxGeometry>
        </mxCell>
        <mxCell id="GldbyRCsS9QSyJfhT_jN-32" value="15破坏了5的平衡，15在5的右子树的右子树上，进行RR旋转" style="text;html=1;align=center;verticalAlign=middle;resizable=0;points=[];autosize=1;strokeColor=none;fillColor=none;fontSize=19;fontFamily=Comic Sans MS;" vertex="1" parent="1">
          <mxGeometry x="1160" y="550" width="520" height="30" as="geometry" />
        </mxCell>
        <mxCell id="GldbyRCsS9QSyJfhT_jN-33" value="RR旋转" style="text;html=1;align=center;verticalAlign=middle;resizable=0;points=[];autosize=1;strokeColor=none;fillColor=none;fontSize=19;fontFamily=Comic Sans MS;" vertex="1" parent="1">
          <mxGeometry x="1360" y="625" width="80" height="30" as="geometry" />
        </mxCell>
        <mxCell id="GldbyRCsS9QSyJfhT_jN-34" value="失去平衡的节点" style="text;html=1;align=center;verticalAlign=middle;resizable=0;points=[];autosize=1;strokeColor=none;fillColor=none;fontSize=16;fontFamily=Comic Sans MS;fontColor=#994C00;fontStyle=1" vertex="1" parent="1">
          <mxGeometry x="1155" y="588" width="130" height="20" as="geometry" />
        </mxCell>
        <mxCell id="GldbyRCsS9QSyJfhT_jN-35" value="破坏者" style="text;html=1;align=center;verticalAlign=middle;resizable=0;points=[];autosize=1;strokeColor=none;fillColor=none;fontSize=16;fontFamily=Comic Sans MS;fontColor=#994C00;fontStyle=1" vertex="1" parent="1">
          <mxGeometry x="1330" y="740" width="60" height="20" as="geometry" />
        </mxCell>
        <mxCell id="GldbyRCsS9QSyJfhT_jN-36" value="将失去平衡节点的右子树拎上来，&lt;br style=&quot;font-size: 18px;&quot;&gt;由于是搜索树，所以10的左子树一定是比5大，比10小，所以挂在5的右边" style="text;html=1;align=center;verticalAlign=middle;resizable=0;points=[];autosize=1;strokeColor=none;fillColor=none;fontSize=18;fontFamily=Comic Sans MS;fontColor=#3333FF;" vertex="1" parent="1">
          <mxGeometry x="1120" y="770" width="600" height="50" as="geometry" />
        </mxCell>
        <mxCell id="GldbyRCsS9QSyJfhT_jN-41" value="5" style="ellipse;whiteSpace=wrap;html=1;aspect=fixed;fontSize=16;fontColor=#0000FF;" vertex="1" parent="1">
          <mxGeometry x="1205" y="845" width="40" height="40" as="geometry" />
        </mxCell>
        <mxCell id="GldbyRCsS9QSyJfhT_jN-42" value="4" style="ellipse;whiteSpace=wrap;html=1;aspect=fixed;fontSize=16;fontColor=#0000FF;" vertex="1" parent="1">
          <mxGeometry x="1145" y="885" width="40" height="40" as="geometry" />
        </mxCell>
        <mxCell id="GldbyRCsS9QSyJfhT_jN-43" value="10" style="ellipse;whiteSpace=wrap;html=1;aspect=fixed;fontSize=16;fontColor=#0000FF;" vertex="1" parent="1">
          <mxGeometry x="1265" y="885" width="40" height="40" as="geometry" />
        </mxCell>
        <mxCell id="GldbyRCsS9QSyJfhT_jN-44" value="8" style="ellipse;whiteSpace=wrap;html=1;aspect=fixed;fontSize=16;fontColor=#0000FF;" vertex="1" parent="1">
          <mxGeometry x="1225" y="925" width="40" height="40" as="geometry" />
        </mxCell>
        <mxCell id="GldbyRCsS9QSyJfhT_jN-45" value="14" style="ellipse;whiteSpace=wrap;html=1;aspect=fixed;fontSize=16;fontColor=#0000FF;" vertex="1" parent="1">
          <mxGeometry x="1305" y="925" width="40" height="40" as="geometry" />
        </mxCell>
        <mxCell id="GldbyRCsS9QSyJfhT_jN-46" value="13" style="ellipse;whiteSpace=wrap;html=1;aspect=fixed;fontSize=16;fontColor=#0000FF;fillColor=#999999;" vertex="1" parent="1">
          <mxGeometry x="1265" y="965" width="40" height="40" as="geometry" />
        </mxCell>
        <mxCell id="GldbyRCsS9QSyJfhT_jN-47" value="" style="endArrow=none;html=1;rounded=0;entryX=0;entryY=0.5;entryDx=0;entryDy=0;exitX=1;exitY=0;exitDx=0;exitDy=0;" edge="1" parent="1" source="GldbyRCsS9QSyJfhT_jN-42" target="GldbyRCsS9QSyJfhT_jN-41">
          <mxGeometry width="50" height="50" relative="1" as="geometry">
            <mxPoint x="1365" y="850" as="sourcePoint" />
            <mxPoint x="1415" y="800" as="targetPoint" />
          </mxGeometry>
        </mxCell>
        <mxCell id="GldbyRCsS9QSyJfhT_jN-48" value="" style="endArrow=none;html=1;rounded=0;entryX=1;entryY=0.5;entryDx=0;entryDy=0;exitX=0;exitY=0;exitDx=0;exitDy=0;" edge="1" parent="1" source="GldbyRCsS9QSyJfhT_jN-43" target="GldbyRCsS9QSyJfhT_jN-41">
          <mxGeometry width="50" height="50" relative="1" as="geometry">
            <mxPoint x="1272.0721356235451" y="860.8578643764545" as="sourcePoint" />
            <mxPoint x="1297.93" y="835" as="targetPoint" />
          </mxGeometry>
        </mxCell>
        <mxCell id="GldbyRCsS9QSyJfhT_jN-49" value="" style="endArrow=none;html=1;rounded=0;entryX=0;entryY=0;entryDx=0;entryDy=0;exitX=1;exitY=1;exitDx=0;exitDy=0;" edge="1" parent="1" source="GldbyRCsS9QSyJfhT_jN-43" target="GldbyRCsS9QSyJfhT_jN-45">
          <mxGeometry width="50" height="50" relative="1" as="geometry">
            <mxPoint x="1295" y="920" as="sourcePoint" />
            <mxPoint x="1347.93" y="839.57" as="targetPoint" />
          </mxGeometry>
        </mxCell>
        <mxCell id="GldbyRCsS9QSyJfhT_jN-50" value="" style="endArrow=none;html=1;rounded=0;entryX=0;entryY=1;entryDx=0;entryDy=0;exitX=1;exitY=0;exitDx=0;exitDy=0;" edge="1" parent="1" source="GldbyRCsS9QSyJfhT_jN-44" target="GldbyRCsS9QSyJfhT_jN-43">
          <mxGeometry width="50" height="50" relative="1" as="geometry">
            <mxPoint x="1249.142135623545" y="960.8578643764545" as="sourcePoint" />
            <mxPoint x="1275" y="935" as="targetPoint" />
          </mxGeometry>
        </mxCell>
        <mxCell id="GldbyRCsS9QSyJfhT_jN-51" value="" style="endArrow=none;html=1;rounded=0;entryX=0;entryY=1;entryDx=0;entryDy=0;exitX=1;exitY=0;exitDx=0;exitDy=0;dashed=1;strokeColor=#FF0000;strokeWidth=2;" edge="1" parent="1" source="GldbyRCsS9QSyJfhT_jN-46" target="GldbyRCsS9QSyJfhT_jN-45">
          <mxGeometry width="50" height="50" relative="1" as="geometry">
            <mxPoint x="1319.142135623545" y="979.9978643764545" as="sourcePoint" />
            <mxPoint x="1345" y="954.14" as="targetPoint" />
          </mxGeometry>
        </mxCell>
        <mxCell id="GldbyRCsS9QSyJfhT_jN-52" value="10" style="ellipse;whiteSpace=wrap;html=1;aspect=fixed;fontSize=16;fontColor=#0000FF;" vertex="1" parent="1">
          <mxGeometry x="1583.94" y="850" width="40" height="40" as="geometry" />
        </mxCell>
        <mxCell id="GldbyRCsS9QSyJfhT_jN-53" value="5" style="ellipse;whiteSpace=wrap;html=1;aspect=fixed;fontSize=16;fontColor=#0000FF;" vertex="1" parent="1">
          <mxGeometry x="1500" y="885" width="40" height="40" as="geometry" />
        </mxCell>
        <mxCell id="GldbyRCsS9QSyJfhT_jN-54" value="8" style="ellipse;whiteSpace=wrap;html=1;aspect=fixed;fontSize=16;fontColor=#0000FF;" vertex="1" parent="1">
          <mxGeometry x="1550" y="927.5" width="40" height="40" as="geometry" />
        </mxCell>
        <mxCell id="GldbyRCsS9QSyJfhT_jN-55" value="4" style="ellipse;whiteSpace=wrap;html=1;aspect=fixed;fontSize=16;fontColor=#0000FF;" vertex="1" parent="1">
          <mxGeometry x="1445" y="925" width="40" height="40" as="geometry" />
        </mxCell>
        <mxCell id="GldbyRCsS9QSyJfhT_jN-56" value="14" style="ellipse;whiteSpace=wrap;html=1;aspect=fixed;fontSize=16;fontColor=#0000FF;" vertex="1" parent="1">
          <mxGeometry x="1690" y="885" width="40" height="40" as="geometry" />
        </mxCell>
        <mxCell id="GldbyRCsS9QSyJfhT_jN-57" value="13" style="ellipse;whiteSpace=wrap;html=1;aspect=fixed;fontSize=16;fontColor=#0000FF;fillColor=#999999;" vertex="1" parent="1">
          <mxGeometry x="1645" y="925" width="40" height="40" as="geometry" />
        </mxCell>
        <mxCell id="GldbyRCsS9QSyJfhT_jN-58" value="" style="endArrow=none;html=1;rounded=0;entryX=0;entryY=0.5;entryDx=0;entryDy=0;exitX=1;exitY=0;exitDx=0;exitDy=0;" edge="1" parent="1" source="GldbyRCsS9QSyJfhT_jN-53" target="GldbyRCsS9QSyJfhT_jN-52">
          <mxGeometry width="50" height="50" relative="1" as="geometry">
            <mxPoint x="1735" y="855" as="sourcePoint" />
            <mxPoint x="1785" y="805" as="targetPoint" />
          </mxGeometry>
        </mxCell>
        <mxCell id="GldbyRCsS9QSyJfhT_jN-59" value="" style="endArrow=none;html=1;rounded=0;entryX=1;entryY=0.5;entryDx=0;entryDy=0;exitX=0;exitY=0;exitDx=0;exitDy=0;" edge="1" parent="1" source="GldbyRCsS9QSyJfhT_jN-56" target="GldbyRCsS9QSyJfhT_jN-52">
          <mxGeometry width="50" height="50" relative="1" as="geometry">
            <mxPoint x="1655" y="870" as="sourcePoint" />
            <mxPoint x="1667.93" y="840" as="targetPoint" />
          </mxGeometry>
        </mxCell>
        <mxCell id="GldbyRCsS9QSyJfhT_jN-60" value="" style="endArrow=none;html=1;rounded=0;entryX=0;entryY=1;entryDx=0;entryDy=0;exitX=1;exitY=0;exitDx=0;exitDy=0;dashed=1;strokeColor=#FF0000;strokeWidth=2;" edge="1" parent="1" source="GldbyRCsS9QSyJfhT_jN-57" target="GldbyRCsS9QSyJfhT_jN-56">
          <mxGeometry width="50" height="50" relative="1" as="geometry">
            <mxPoint x="1689.142135623545" y="984.9978643764545" as="sourcePoint" />
            <mxPoint x="1715" y="959.14" as="targetPoint" />
          </mxGeometry>
        </mxCell>
        <mxCell id="GldbyRCsS9QSyJfhT_jN-61" value="" style="endArrow=none;html=1;rounded=0;entryX=0;entryY=0;entryDx=0;entryDy=0;exitX=1;exitY=0.5;exitDx=0;exitDy=0;" edge="1" parent="1" source="GldbyRCsS9QSyJfhT_jN-53" target="GldbyRCsS9QSyJfhT_jN-54">
          <mxGeometry width="50" height="50" relative="1" as="geometry">
            <mxPoint x="1559.1421356237306" y="905.8578643762694" as="sourcePoint" />
            <mxPoint x="1575" y="880" as="targetPoint" />
          </mxGeometry>
        </mxCell>
        <mxCell id="GldbyRCsS9QSyJfhT_jN-62" value="" style="endArrow=none;html=1;rounded=0;entryX=1;entryY=0;entryDx=0;entryDy=0;exitX=0;exitY=0.5;exitDx=0;exitDy=0;" edge="1" parent="1" source="GldbyRCsS9QSyJfhT_jN-53" target="GldbyRCsS9QSyJfhT_jN-55">
          <mxGeometry width="50" height="50" relative="1" as="geometry">
            <mxPoint x="1569.1421356237306" y="915.8578643762694" as="sourcePoint" />
            <mxPoint x="1585" y="890" as="targetPoint" />
          </mxGeometry>
        </mxCell>
        <mxCell id="GldbyRCsS9QSyJfhT_jN-63" value="" style="endArrow=open;html=1;rounded=0;strokeColor=#FF0000;strokeWidth=3;endFill=0;" edge="1" parent="1">
          <mxGeometry width="50" height="50" relative="1" as="geometry">
            <mxPoint x="1365" y="910" as="sourcePoint" />
            <mxPoint x="1455" y="910" as="targetPoint" />
          </mxGeometry>
        </mxCell>
        <mxCell id="GldbyRCsS9QSyJfhT_jN-64" value="RR旋转" style="text;html=1;align=center;verticalAlign=middle;resizable=0;points=[];autosize=1;strokeColor=none;fillColor=none;fontSize=19;fontFamily=Comic Sans MS;" vertex="1" parent="1">
          <mxGeometry x="1365" y="875" width="80" height="30" as="geometry" />
        </mxCell>
        <mxCell id="GldbyRCsS9QSyJfhT_jN-65" value="失去平衡的节点" style="text;html=1;align=center;verticalAlign=middle;resizable=0;points=[];autosize=1;strokeColor=none;fillColor=none;fontSize=16;fontFamily=Comic Sans MS;fontColor=#994C00;fontStyle=1" vertex="1" parent="1">
          <mxGeometry x="1160" y="838" width="130" height="20" as="geometry" />
        </mxCell>
        <mxCell id="GldbyRCsS9QSyJfhT_jN-66" value="破坏者" style="text;html=1;align=center;verticalAlign=middle;resizable=0;points=[];autosize=1;strokeColor=none;fillColor=none;fontSize=16;fontFamily=Comic Sans MS;fontColor=#994C00;fontStyle=1" vertex="1" parent="1">
          <mxGeometry x="1255" y="990" width="60" height="20" as="geometry" />
        </mxCell>
        <mxCell id="GldbyRCsS9QSyJfhT_jN-69" value="13破坏了5的平衡，13在5的右子树的右子树上，也是进行RR旋转" style="text;html=1;align=center;verticalAlign=middle;resizable=0;points=[];autosize=1;strokeColor=none;fillColor=none;fontSize=19;fontFamily=Comic Sans MS;" vertex="1" parent="1">
          <mxGeometry x="1160" y="1020" width="560" height="30" as="geometry" />
        </mxCell>
        <mxCell id="GldbyRCsS9QSyJfhT_jN-72" value="" style="shape=stencil(hVrLchw3DPyavbL4AkmcHec/XGU5UkWRXLKS2H8fTLa4WqJnem7yGpjhA2g0GnMpn348fvn+cMnxx/vb658P/z59fX+8lN8uOT+9PD68Pb3bX5fy+VI+fXt9e/jj7fXvl6/Xf3//slluf/31+s/2hJ9Xvxhi3Jxy/HX9ofag9f9ffr/aPz+9LPZVvX0ax/Yp1LHay3zCrn0OTVb7Eooc25eQ62qfQ4nH9jXkttrHIP3YXkJa91tGkHZs30Jez7O0UIm9nV5Z7WuoZL89jL7a24mVY3tbbV7tYxjp2F5DWp9vv2Ryvxr6+nxbYSfrT3E+7uZgR5apw1hPyO5wsIhLMwBuDiUICWlzGGvMZR5DKc8V3xxSiGzTdkdrFH3k3b5DCXEN0zTmIo8cynpKySKFv6Gl1aHN1DtyGOsekgRhb6gzcW8OPLTtv4dbUgmVvUFCWYN1uxn2BvGxZHef2BtaKOumNSh7QQ9xhaPBb6H7wDjJnuGvuYVO0HSLmvX5EpSgRdKZKR/2kaDjFsauHIRC0MXs+/p8C0OSmpZX7vxviXFkr+vz83zAvn2eIXwLiDAIGNnrk4vpUNj6IWkMzdj6IQXirJ/79i0kb5/ZfnsQvx4W/xv4N2fPcKskX/7irJ/79gBbfL9FPD2wgCLxWYzMOBydfGGfHURf7tOsb/v22ZfvPA9g3x7iwSoD2a+RJVnXbwFI4sfIWEnOnuVXBXyoIZL9SvSIW2dA7dvb8a3r53giEA8yAWPfXjx9NbZF8EeaX48BNjl/GaEWZ8/YcQM6PUIn62lwPjp/2Lcvns4ZPWIB2iCArOKxjGndcxurqZ2UjAYhtFELcqY9wpIqveSe553eMQ9W9TqQfKvj7Np6m1F/x56UvQFxxYgze4N6YD9BxpFCc0TcWinyhlFCd7SXY8sQX4u3asVaCSgeJ0x86FzxzYHTD4XyYfk8yCkpEmtOoLQEde0Hz1AV6FdsVySBtPn2wzouVnMUW0BOShWCz3pAxooUm8AyecORgzsl60qFHat6rm9tLwNWc2hu033G75GDS6CiE5uPHHR1qGmSt4NGE7UQzjb3PHh92/PgFWjPw26Hn5TbuJy0/HC0wiEfL084gisAgXBAVuCdwvHVHOIKl43ftkLZalxoMgfXMFttZe2sAnew2sqkI3NwzUVTqk0hEPRE2x3FdtMinIVG96W3nwBB8w1YPwEC6LCttgoHZNfD90F7cgUJb/CmR6tvggfvGqyoDMf6eNtpZcupeINLVAoS1bCMY8caZ6G9Odg9sJxG5sqBaUCNsF8iIyjDa1rGDyKjQBBLtkgGAgNCYyMU7A3VQ6XdzAnJcpu2u2dS4QDBwKKLdXBb5LglCW3JLDalewfGmQbwb+XKXweNVzuVbDuEhvLi3gH5DAtZaHTocze0JVDZUcgbtNPqoC0qhxkDRqec60lLgKGhs/s96oOcuGgOwu4BpPOtchOHhjetvH8FPfKDTOw7QAO+0RUSGg1S9I4RHfXIXjs/8wCwPFmUDA/4J+dkdMcnKb86gRZ2o0QkOASDg08MKtBEcygkhSqwjZOsrtBVK2d9FTfdZlIdyW9OvjXsY/pPxYzgfKbAPMwAnxXeAhRLOcUqMDFUPsQoWLQSF02BnihvCArQk5PCWyD4BmeuBWZ0GxdgwnKcU9Q7tlFJAmWYZAyuDGTI6RMClKFoGWFhzHUT390buBySASzNobDxgQDr4/rsJsc6bsw1oAxDvXEykQFZ6oQb5+xhZpPC2JIw+E6GLMkPTQavDxmmAp2DcYJ+t3N6kkCh6Sfj2z5R6M6B8XucTBolymxJoGMZJWps1gh6ojkkkqIJGrOT5jJVrzsYh6KfAgBd75yuJ9DXjXTRbwcgWjvX1xPw+34ygoYRgdE6RhMThLfRukZFKY+tjYMxMIcPGnhg77KhWZFkPRBIMyetKAzF+RQIiEwT3gB53G5c94ZUa3yq1vw3Uo1P+QDlG/9eBSTsZj0jua/qu4DGp6xA2xoXWICPCG98cCjIv8GCnBROVLPHUqPrg031/RxEZOLMkb3bb+VF1otuwidqACnCQQs+XxJOINE+Uukd7KtSaRXtOZ6gPRdWz79xtD8+PpD89vT8fP2+8v7//QeV9tP1Y8zy+T8=);fillColor=none;fontFamily=Comic Sans MS;fontSize=16;fontColor=#994C00;strokeColor=#FF9933;strokeWidth=3;" vertex="1" parent="1">
          <mxGeometry x="1536" y="913.6875" width="67.5" height="65.3125" as="geometry" />
        </mxCell>
        <mxCell id="GldbyRCsS9QSyJfhT_jN-73" value="" style="shape=stencil(lVtJchtHEHwNrh29L2fZ/ociRFkMy6KCkrffO8d0DzBZg2zhRoGZ4kx1LVlVjUt69+3T+69Pl+i/fX99+e3pr+cP3z9d0k+XGJ+/fHp6ff6Ony7p50t69/Hl9enX15c/vnx4+/fX9xty++n3lz+3/+HvN95wrW6k6P95+6C6XP774Jc3+OfnLzfwEF30j+CLG+mAL64qfHc9HvDZ1SDwww3Gx3QfH/H8x/dNrih8dmUc8HE+4Dm+upYI7xW+u1QO+OCyeN/tvPoB790Q+BSc94SvXuCjC4HwWeHTNPcVHxU+8/t6FxS+uNwI7xW+usT2kfjmEttH4ruLbB+JHy6wfRQ+49f5EXxwoT6Ch/+zfZT9M853XH78fDPOl+2TFL64xPYpCo/zZfs04f8Z53u0T5gOfo7vrnTCF4UfNj+oeC9+prMrPit8cJXzyVD46NrRPsllkd9KcoPz4VD44sLRPtnlLPB1po8rvit8c+WYz8s88HN8dzUTvov6Uk7qXRL4ivzZCf+/wc7xkfNJc1Xh00z3E4+C0AQ+z3I18cN5hd/L7RVfu8BXV475NviZMc4JzQQMInIIQnftaKEQXFIEHFlkwhA5onmuwVAtqoi14FphgvwLkb0oJFm2W+KyDYKq2w1hQlbKMzLOCfD7oyNBegVFMEoFhCZCv+Gkj6EW6kze54TucmXCEMHcxvT9nbD/zVNC91zNoB+jCOceOB1BQHpFiK5GJnQR0D1xAt4qlIjQnuf/txPCjMFzAiT18aVRE5II0Q6rU41KLoiI6935wIShCEblxN1/TwnDyBzkbVX3QaA6hUSsCvkIrjcmqMo5IOzJSk1K/ZE4RJG7VQCNzIlsU/PCvUfhZJ9gBuGtAzah6h+nPrxH6MfMB0GfhfONxjENRd+F84EwjucAia6cbyCCidBmxbhHoAoE0Z2Ua/T5xLsm8a6rgxvziXcCZLQ6uOEyEZKUJcPISAjjrA5ucBWF0vXqHAZ7K6RuVecwZgnclZVuFYL33Gtu6lU17yeMJNv3M0aWMXTG0JLPWgqiVGk+e3hQmVmfRToSqp/J5x7BEyHKNgwuTnoDQnMRE5kIeUXwxzCF1IwqXaKUVybIqGsuHHMTxGlVhMpaF+JUNScgUBWqWj4M061CnAZFMO0wxGlUvhS5VkOcVpWQ91/vBF3cUUnj8aWhNVV+hRqgERukoxeu0dscMe0EdOHCNSBQSMY1XUkhgWjqASUYlFDM81x3QtBCMbHYhRL0SvdFHnTiEykU98Z/JyR50nhiUvh4K5VmQAjHc4DdVC8HI1Jewsl44UsQ7NQtblpTNU6dG6euizsIng6uy4EMXI3cG+I0KkI15zCk7kOn1Y7ngJBSMxzEF1VSBK1XjVPmdA+CmlIj5EkzIY941WlFlnEgVEUIM5PuhCSrKPJcpkFFlqmyDk6VyLYq4pCr2Uplav57sw2SoqPKTqsWVseoSXIYkrn52+SvIiRuLzc1q4YhkXMrCKo1q4ELO8REVATPE/dN34gQhdihkf5VnN6b2dHO4Ko17w0FaSlxo+rujSnbeIyR+bWXjMT6ZMkIXCOWDM+5ZsWwA+klw0i/JcMO1VeMyuljyTC975KRebS+ZCQzilwxopnjrRhhTn9+mOE566wY6HfHY9YFw8fHGP3RGETbHh+zbjI6cMkoZmK4YuS5r/7B5JOMErw2iOcEMzJc5MMUjKAYeknrObstUnQcPPHYJhSa4E0RUF1F7CywF3UpNiMouuyBY+VN2NbkKoKZiC9qa7Q6rcvNxDYV7UyQVkrGrG0mlHNCmPO+G4LS/HGfZN0QgiCEwRcutpmgInQej4CgRoahcc7cxpSKUHl0uxB22yWTygQ1PQv7EvKGoNrykIyVspwJhWislOf845wQTExrvRw8F5axmDFy6wV8US2w0bJJPlAznhflZK7xkgF4teqtXE4WPU7hZnZbCYgmKnMvO4IcNyXe2wCv1mFGLg49dY6m7ng5RTHictHHBt60b1scNa2d68SbTlw11t6MK/RswNyM6EWmOm8252n2d3fwtJnvccrYO3jyt+7nmvgOnqYtrcurFGYu3Zpc2Fp8kTNgi0+y/NnnD7J3NfZBy6/tSfZHA6+WWeZ8q14GG/9Bv692CcY/0b2rBWFgyYzmvct4iYSPUgaGGd07PsjzCjy3QudeVOFm/VSGvGoSOJ+jb1fzGJN/SpX1KPLOuOiroZFvfpXFVU+uX9vdKHG+Jj8XfVUs8T4jaxFu6kXW2i/zTA9NtLrqk3kRkLMccWcWrznK+CrcnKFRlVfFuP4u1rKFd6ZoIFWfVXjQsbWPIl7KXHfu+CzzmxkhJT2fL3x/IEUpQivn56RXEpXzc9I7D6OX4n5L4w6e8jMUoMbTVZqo61c1Nx+r9IfKXfHiikjlfB71XqvOC1g7PskG1OjVrZsT/mOGljHK4XHj/L+4B2RuSm4VTeKrwat83sy1uyH90+h/dIrqqwHNDEObXEH0uTPZ8VXqZzNlBl75c+fdLtpKubXkBcfihl431+eSvLpsbrYCryZbnXvasLgjwMvvxT3MwROeoPWGXQvIm6djNqO73NZ7b+5m9T3b5ddc8MP1KzIfnz9/fvuGze3v+Ss1+Ojt6zjp538B);fillColor=none;fontFamily=Comic Sans MS;fontSize=16;fontColor=#994C00;strokeColor=#FF9933;strokeWidth=3;" vertex="1" parent="1">
          <mxGeometry x="1215.5" y="913.5" width="61.5" height="62" as="geometry" />
        </mxCell>
        <mxCell id="GldbyRCsS9QSyJfhT_jN-75" value="" style="shape=stencil(lVvZkhQ3EPyafVXoKF3PGP8HESxmwxgIwNffO9sb6pnO6skZ3palclZHqSozpXkqb75/fPf1+SnH7z++ffn9+e+X9z8+PpVfnnJ++fzx+dvLD/z0VN4+lTcfvnx7/u3blz8/v3/999d3W+T20x9f/to+4Z9XXAptbKAc/339RclhzP9/8+tr/KeXz1fxLfR8iM89JBGfUpjlCMBvugBYaPUASDMkBaihEmCEqIY01uftgBpivQ3IMcx4BOQQkwCkMGhIMYwmADnYcRtmGGLOuYR4HNEIY8j4Vig+qvFYyO0Q30M2EV95PC2YWqAauh3ia2hqvi2U45bZSqvz+M7jwYTU+vQwjuPBgmURP/jY5DDVes5Q6diEEm/HlxgyJVBoYv0RPyfFJ5HRJfExRn6K+aIo1EbxVaxnKcEixRexX8VWel3ik1jPgjPPnx/VeNo6Tlfxav0H1xT9+Yb9KhSfxfpbDonXX50XMx/fRT4YzssxXueDYb6F4qtY/xo5HhMS46lI90TxQ6x/xXyP+1tCVZ9fOf9NdqXaV7l5rJ7UyfmJBFRdEttznG+T+dCwfIPip8iHhvN1zM8eqqifzXg8Q+5Xq6tdXeKbWJ+2D/fSv7Iaf1/l8hLf1XrO1W+vGmoRCdrj6m8PduCOA0J/AUdATKG7lg1SoPa4F+4xAEwx6e6aaiqhi13obRXNHWDBRFr0HozKRJX71l3fA2CqSYPHUGEBgxSVdMRFZHYAzqooFcO1sgu/Owe4XgbAEMs6XDMDIzWxccN1s619qCEZtycAVL8foEtUT1PIooEPNARjgDpxAEwaEtJbAbobUtY7PdwqlZDVKg23SmXx7HPADOXYFVDm1Zme2CaiaVX2fQDMGNBEmZmRC2veW/U5IC3iegVQ+gmAfsxW9AZVu2d2kx6ru9wCVJr0lN12FhZcAKh2CwDNAQR3iPMwbWX/DkjyTAPQjw10070qNerKzR1QJIUBoB2Tr5jUdLO5OVTZsgAgErbRXLVKbdXqHTB0eneWXWUuIncLQEoZzFgRtzmYqFqSVQMAUo5WpNqfk5siyLTi2gAYccMqi/HcucsOaFINAjAIMBb7OHcsYnR6dq6C/igCnF01rTOEFgFniLx008MITezPELa09MOIKqv+GULbF2eILgXWOUIZbWeIsajOw4j5s6vb9o72MCIFE5X2DJF/Nnehd5T9dIawpcgfRmjq6w8tRE9WDcCVhaatUgCIXDdtZAJQCTClreFLGwBTA9gHjLpNzuWk7oC0pOetek6qCMJKWW++AUBYqYIwB3uf/Q4LdD0JSkyVTgAol6DEVOVEm6SN63c4Wmf2ASUm22RzqzQlVwaA9C+U2FTLWln/QlgpkQPKRaY4hJUyIQAoZFqbPqKONkInySPqiClkT1LL6qgvZI88oo5cjzuUKy21uwOmtOoBiJ0B6i4AEoSk4IzyiOLzyDzC36xKMM81xR2Q7yk7HlKWAgGrTv7vtvdKCrYly3aAaQ1f3aSr7PBewwOgSiWyn27GcAZN7DTOF1kjKAtRuQTu7g0AVVuHu0ZAaVMtC4BUGaCKcZ9sBG/1XFlUg1vWnPLuDZWUrlouTeyWa0Ztd2uTag6VW9bWiJWRZ0wdtlavJl1YqG1kQtlsmXXXRldEanR3QwmAKvfo+yRnryjULc+WauVdxFhH8mFEZ//lLqKxJ3Rn4qCFXJv00oJ5JpdPardBh6fLWJWAYNy9MSCpSUdXLvWpg24o7lyrCl73OnFVahRBgcLytUn5i5uIo0LQpIN50YlXgCyWdZOiroIrwQW12wsDlOoAgK615v7a4RyQ2ICZJpVQjcz77jRGAIjsXkjRLQCR3Y0UiVUyJ2tAH6a6vJxu0vsynAOGK5dRpoY5hg+AYpbWWcuB4yiGb46wg+MopWVteUxXAGUMmyfsXVrP5gm75q5mfEkHFqWk/masEWHXDqa/1t4Iu7pn9wzf1m9uAZjh42+qOWR+fjSKlGb+Kh8AVWYscZcb2no2d2cAgKlJO4Y/tBteHMMHQL7XGHw7NLRBX9xlDwCKlZXOfRrUsYlVKu6Gqw95NVkqX+sBoIpAMW6KG9dUf6FwUwTXVJ5fyYvPXwHkOx5H2DerQj28mqv0XpkhauPy5JbVTW5cHs4yKqsBnAPcJXQvUnRkR9jvWEa5cn8AQPkCALADpG9Ls7khJanltvcpzlhT13rbA5jCANWB/BPBHmUu+TeIYPDqkdH2kLMyQFWNnLg/gPGrZy7ZiQ4Aqti4NLllbRaqcvInV29ICpWtafB9bOuSGafOMggSRDXF1FY3uAKo+9jtCUZngPIFkrHggMhR2QoAGToQOcpjSoXLPQDq4jDtjwuuLH/FjFPict/0a5oU3V/Q1xDuyVdL+iHKIlN7fNTOxjI/r+KjemPFn7+JNKWw2Jq5c31k7MxU/Ua4sDFTuySsmW14SED1hjSxaVL1G2EnlapJxzty9UK8Wv/oxl8kk3TCquo3kpH5fE3STz+74FXO8tkVsjINfLy2ANz4oYGUS7wrrj1e63m3nohXr/Yj0woIoCI/nxos1Il6E+3ywUy+WY7sGkKbyF7GN2lQGiqfk3vnkPWjAuZpplV2cs8iohRG/psl+l7CnfeiLz6cl1K0YHZPkEuX9SezfXTndc3+ovkqXp3fzEy86Muqsh687vGmL/fvfrMHP1y+FvTh5dOn128VXf8/f40Iv3r9ClJ5+x8=);fillColor=none;fontFamily=Comic Sans MS;fontSize=16;fontColor=#994C00;strokeColor=#FF9933;strokeWidth=3;" vertex="1" parent="1">
          <mxGeometry x="1545.5" y="663" width="59.5" height="76" as="geometry" />
        </mxCell>
        <mxCell id="GldbyRCsS9QSyJfhT_jN-76" value="" style="shape=stencil(lVrJclw3DPyaubII7jg7zn+4ynKkimK5ZGX7++BFxadhQ2pKN3mMnuGCpdHgJX/6efvlx80lxZ9Pjw+/3/x99/Xp9pJ/uaR09/325vHuyf665M+X/Onbw+PNb48Pf37/+vzvH18Oy+OvPx7+Or7hn2dc6qGXA5Xiv8+f5NDj/x/8+mx/f/f92n6EhvZa37bPEmS1LyGT788lpAb2vRH7Grou9jVEJfYDv7+GRtZfYuhpsW8hkfWXHJKCfevEvoaaF/seUiL2PRS0b2S/ZQRd1zOCkP3WGEoF+ybEXkLtYK+D2KfQxmKvIbP15DAi2HdyPrWEIYu9ROoQtYaREFCIx9UWtCBgZALoDiA0BuqYIXUFGOyQNOjq1JJCJrfW4iuATq6tSdD1msUcvRBACqMhYJBNtzzj/AQU6hmtzMC9AijbtIUaAGrIJDZbC6UgoLNNW+yuwSk8W7QRoiCgsiUNTHfC80VTjB8DDPILPboAGqGSX+jmGhBAPKR7nhloAlIMiThfL6Gue0hCT6lXDKCU+KYtia4Xl8469DpAQ1k3bXWEZY1hdRD2wAvDsBWvN22ZNbJfKJhZLVUW4q2jzWs6SzlPZKPjTecUhAE0tHXTOVNfUgkRlmTlnASQplBXb82N8gXNmPkyL3Bag6z3YJSAZQ09Q/4E8FPSPgvUCci0huoZwSeg0ovTgaShcNZggLH6UuFlVzXIeg9GDArbg+WIdUk1U2JiAMjeL6X+LUADpmcOzzatswSegD6d5S0AhGjlEScxTm8+2SEPudcQiSZ8vyirrNTBFatc28Scc462OVjj3KtzWKFkbEMdybUyFnnMQTq2MlbZ1dXJwE7AJkjLXMAJ2KQyy9/rsXbemVjuG8DsN6nMtSb9jPO30nFf72HwVDbG7AVPAHc+qxBAHgZnfQaI6x5GpVzAilaBfmNTR+skhSeAO58BBJY0+B7KdLUTwJOlASCmlbccdojQlJmzCIlpTx4MwHzpuNf1lMx/C/sFwRC1ykrpSUS6rlxpMIql0CnyhsAA0QFYQ2DhggDufEYTIQkoVw8sgmNDgJIQPXIEABq9aePGwJgMwJpLS1uxIIBVakuMHsAizlIv0EQDsPbV9ygHJWJ91nAiwqYL6nPFV4BKknFrrwAYF7CaCWzjqHpsD8UFEO+zrIwDTdRBA8j37EflZpuO85pOAC+7Rnd6RgBrm+qY8fVeQMOSpRu9yALILYlxMqOd1S2pMkDCnv1gmkz/cZKa8vpQ7F47AhjVLc2lSqWZz/qFgipZpKSvuL5pi3Ct2Rbhur8dIqsX7zaIMeP+3YiOjGOLcBxlizjFg3cjrBaiCrlBZOy4toj0YYSEDKmfe26OU6d8ZzAdcvGHEkIayPQ3SS31IBBMPM8mpzZtUv8x0oBT4pQ0Gf9TBDB9N6XJ669KsLIlSUiORjCJTRRptXKp81ARHXdiYqp0lBRepJjXAdWlzUJ9SYojvVx4kYTDL+UquDid/RCsWBPo6qPQe3OjBeWjhYaC3NFEsmI3qeGVPWPIBbPr2MQ/Mr/Bq3WeTfqVPQ1mN53iJCu57+dquSARHZyICg4IBiffEfu4wRuO6FpRLpL5aR/v1yNWncHnRnGexmnPJ1kRY35wfcypY51TK28/Zo17pz3Po96e5yxvnz+4HqHSm1cPOd/29p3KYt6ei1zOHxpPoM4/G89vEdu2uvMHVHC5PwhqQ5V3qoLxUnn/76bplUsYVh3W8z/m5eT8Xe9Sefy6fFh5/CYcKVUevy4/F14vErKOwrnZ6V2nfaeyVp5jkdOeyy8Fu81SeGsXMrxu4SpyQQF2M0ty3W/5YH3Pm34c+63MmWvDUW/mowLHTzbzv+7mhRtREYl05g8lhvv+jfDqJtXcnwcOCTbPbTTIGi+2o8pmNdiDJ843rPla73cz1nYCkHks42/q9ruZoiB/tgzABpfHY5+OAJqgI3Z7iVcYAySYy/NR0/GcCF5gcJ8wAAonnORKxDd8sqli/vkPdyMRPFbhfvTywukEVH5KMv3gBPBMagDcNC991ryB2m+fMEnX/huGirLxJaul7t0WyxbiJN3DHdkeMi6Jix/iHlXx9sfOHBbE3wmIE7G50m/2ODrmokFFPWnjRU4C4OVD3AuvQrVfcQ+8Co/Mjvws0wmtuMEGf7dkiQH4Ey9nB5+GOKZjwSTID3hytJ8H+w39s24H7Vm5OV5ldbBn8ZIq6in8Mejhjor2bL8dc/vG3omRm/W7kebmfBRfBnH6l+N095f7ZQkru1ds/CGe2Xf0T+H6MbxW5u1JdmNrbJ/tj5en79/u7u+fX85f/z8+lbePnp/Z58//AQ==);fillColor=none;fontFamily=Comic Sans MS;fontSize=16;fontColor=#994C00;strokeColor=#FF9933;strokeWidth=3;" vertex="1" parent="1">
          <mxGeometry x="1211.5" y="656" width="55.875" height="67.5" as="geometry" />
        </mxCell>
        <mxCell id="GldbyRCsS9QSyJfhT_jN-77" value="A" style="ellipse;whiteSpace=wrap;html=1;aspect=fixed;fontSize=16;fontColor=#0000FF;" vertex="1" parent="1">
          <mxGeometry x="1365" y="1130" width="40" height="40" as="geometry" />
        </mxCell>
        <mxCell id="GldbyRCsS9QSyJfhT_jN-78" value="B" style="ellipse;whiteSpace=wrap;html=1;aspect=fixed;fontSize=16;fontColor=#0000FF;" vertex="1" parent="1">
          <mxGeometry x="1300" y="1190" width="40" height="40" as="geometry" />
        </mxCell>
        <mxCell id="GldbyRCsS9QSyJfhT_jN-88" style="rounded=0;orthogonalLoop=1;jettySize=auto;html=1;exitX=0;exitY=1;exitDx=0;exitDy=0;entryX=0.5;entryY=0;entryDx=0;entryDy=0;fontFamily=Comic Sans MS;fontSize=18;fontColor=#3333FF;endArrow=none;endFill=0;strokeColor=#000000;strokeWidth=1;" edge="1" parent="1" source="GldbyRCsS9QSyJfhT_jN-79" target="GldbyRCsS9QSyJfhT_jN-84">
          <mxGeometry relative="1" as="geometry" />
        </mxCell>
        <mxCell id="GldbyRCsS9QSyJfhT_jN-89" style="rounded=0;orthogonalLoop=1;jettySize=auto;html=1;exitX=1;exitY=1;exitDx=0;exitDy=0;entryX=0.5;entryY=0;entryDx=0;entryDy=0;fontFamily=Comic Sans MS;fontSize=18;fontColor=#3333FF;endArrow=none;endFill=0;strokeColor=#000000;strokeWidth=1;" edge="1" parent="1" source="GldbyRCsS9QSyJfhT_jN-79" target="GldbyRCsS9QSyJfhT_jN-83">
          <mxGeometry relative="1" as="geometry" />
        </mxCell>
        <mxCell id="GldbyRCsS9QSyJfhT_jN-79" value="C" style="ellipse;whiteSpace=wrap;html=1;aspect=fixed;fontSize=16;fontColor=#0000FF;" vertex="1" parent="1">
          <mxGeometry x="1340" y="1230" width="40" height="40" as="geometry" />
        </mxCell>
        <mxCell id="GldbyRCsS9QSyJfhT_jN-80" value="" style="endArrow=none;html=1;rounded=0;fontFamily=Comic Sans MS;fontSize=18;fontColor=#3333FF;strokeColor=#000000;strokeWidth=1;entryX=0;entryY=1;entryDx=0;entryDy=0;exitX=1;exitY=0;exitDx=0;exitDy=0;" edge="1" parent="1" source="GldbyRCsS9QSyJfhT_jN-78" target="GldbyRCsS9QSyJfhT_jN-77">
          <mxGeometry width="50" height="50" relative="1" as="geometry">
            <mxPoint x="1270" y="1180" as="sourcePoint" />
            <mxPoint x="1320" y="1130" as="targetPoint" />
          </mxGeometry>
        </mxCell>
        <mxCell id="GldbyRCsS9QSyJfhT_jN-81" value="" style="endArrow=none;html=1;rounded=0;fontFamily=Comic Sans MS;fontSize=18;fontColor=#3333FF;strokeColor=#000000;strokeWidth=1;entryX=1;entryY=1;entryDx=0;entryDy=0;exitX=0;exitY=0;exitDx=0;exitDy=0;" edge="1" parent="1" source="GldbyRCsS9QSyJfhT_jN-79" target="GldbyRCsS9QSyJfhT_jN-78">
          <mxGeometry width="50" height="50" relative="1" as="geometry">
            <mxPoint x="1290" y="1290" as="sourcePoint" />
            <mxPoint x="1340" y="1240" as="targetPoint" />
          </mxGeometry>
        </mxCell>
        <mxCell id="GldbyRCsS9QSyJfhT_jN-82" value="B&lt;sub&gt;L&lt;/sub&gt;" style="rounded=0;whiteSpace=wrap;html=1;fontFamily=Comic Sans MS;fontSize=18;fontColor=#3333FF;strokeColor=default;strokeWidth=1;fillColor=default;" vertex="1" parent="1">
          <mxGeometry x="1267.5" y="1240" width="42.5" height="95" as="geometry" />
        </mxCell>
        <mxCell id="GldbyRCsS9QSyJfhT_jN-83" value="C&lt;sub&gt;R&lt;/sub&gt;" style="rounded=0;whiteSpace=wrap;html=1;fontFamily=Comic Sans MS;fontSize=18;fontColor=#3333FF;strokeColor=default;strokeWidth=1;fillColor=default;" vertex="1" parent="1">
          <mxGeometry x="1372.5" y="1275" width="25" height="60" as="geometry" />
        </mxCell>
        <mxCell id="GldbyRCsS9QSyJfhT_jN-92" style="edgeStyle=none;rounded=0;orthogonalLoop=1;jettySize=auto;html=1;exitX=0.5;exitY=1;exitDx=0;exitDy=0;entryX=0.5;entryY=0;entryDx=0;entryDy=0;fontFamily=Comic Sans MS;fontSize=18;fontColor=#FF0000;endArrow=none;endFill=0;strokeColor=#000000;strokeWidth=1;" edge="1" parent="1" source="GldbyRCsS9QSyJfhT_jN-84" target="GldbyRCsS9QSyJfhT_jN-91">
          <mxGeometry relative="1" as="geometry" />
        </mxCell>
        <mxCell id="GldbyRCsS9QSyJfhT_jN-84" value="C&lt;sub&gt;L&lt;/sub&gt;" style="rounded=0;whiteSpace=wrap;html=1;fontFamily=Comic Sans MS;fontSize=18;fontColor=#3333FF;strokeColor=default;strokeWidth=1;fillColor=default;" vertex="1" parent="1">
          <mxGeometry x="1320" y="1275" width="25" height="60" as="geometry" />
        </mxCell>
        <mxCell id="GldbyRCsS9QSyJfhT_jN-85" value="A&lt;sub&gt;R&lt;/sub&gt;" style="rounded=0;whiteSpace=wrap;html=1;fontFamily=Comic Sans MS;fontSize=18;fontColor=#3333FF;strokeColor=default;strokeWidth=1;fillColor=default;" vertex="1" parent="1">
          <mxGeometry x="1410" y="1190" width="40" height="120" as="geometry" />
        </mxCell>
        <mxCell id="GldbyRCsS9QSyJfhT_jN-86" value="" style="endArrow=none;html=1;rounded=0;fontFamily=Comic Sans MS;fontSize=18;fontColor=#3333FF;strokeColor=#000000;strokeWidth=1;entryX=1;entryY=1;entryDx=0;entryDy=0;exitX=0.5;exitY=0;exitDx=0;exitDy=0;" edge="1" parent="1" source="GldbyRCsS9QSyJfhT_jN-85" target="GldbyRCsS9QSyJfhT_jN-77">
          <mxGeometry width="50" height="50" relative="1" as="geometry">
            <mxPoint x="1460" y="1190" as="sourcePoint" />
            <mxPoint x="1510" y="1140" as="targetPoint" />
          </mxGeometry>
        </mxCell>
        <mxCell id="GldbyRCsS9QSyJfhT_jN-87" value="" style="endArrow=none;html=1;rounded=0;fontFamily=Comic Sans MS;fontSize=18;fontColor=#3333FF;strokeColor=#000000;strokeWidth=1;entryX=0;entryY=1;entryDx=0;entryDy=0;exitX=0.5;exitY=0;exitDx=0;exitDy=0;" edge="1" parent="1" source="GldbyRCsS9QSyJfhT_jN-82" target="GldbyRCsS9QSyJfhT_jN-78">
          <mxGeometry width="50" height="50" relative="1" as="geometry">
            <mxPoint x="1250" y="1240" as="sourcePoint" />
            <mxPoint x="1300" y="1190" as="targetPoint" />
          </mxGeometry>
        </mxCell>
        <mxCell id="GldbyRCsS9QSyJfhT_jN-91" value="pNew" style="ellipse;whiteSpace=wrap;html=1;aspect=fixed;fontSize=16;fontColor=#FF0000;strokeColor=#000000;fillColor=#B3B3B3;" vertex="1" parent="1">
          <mxGeometry x="1300" y="1350" width="40" height="40" as="geometry" />
        </mxCell>
        <mxCell id="GldbyRCsS9QSyJfhT_jN-93" value="" style="endArrow=classic;html=1;rounded=0;fontFamily=Comic Sans MS;fontSize=18;fontColor=#FF0000;strokeColor=#FF0000;strokeWidth=2;" edge="1" parent="1">
          <mxGeometry width="50" height="50" relative="1" as="geometry">
            <mxPoint x="1485" y="1244.31" as="sourcePoint" />
            <mxPoint x="1565" y="1244.31" as="targetPoint" />
          </mxGeometry>
        </mxCell>
        <mxCell id="GldbyRCsS9QSyJfhT_jN-94" value="LR旋转" style="text;html=1;align=center;verticalAlign=middle;resizable=0;points=[];autosize=1;strokeColor=none;fillColor=none;fontSize=19;fontFamily=Comic Sans MS;fontColor=#FF0000;" vertex="1" parent="1">
          <mxGeometry x="1480" y="1210" width="80" height="30" as="geometry" />
        </mxCell>
        <mxCell id="GldbyRCsS9QSyJfhT_jN-95" value="C" style="ellipse;whiteSpace=wrap;html=1;aspect=fixed;fontSize=16;fontColor=#0000FF;" vertex="1" parent="1">
          <mxGeometry x="1685" y="1130" width="40" height="40" as="geometry" />
        </mxCell>
        <mxCell id="GldbyRCsS9QSyJfhT_jN-96" value="B" style="ellipse;whiteSpace=wrap;html=1;aspect=fixed;fontSize=16;fontColor=#0000FF;" vertex="1" parent="1">
          <mxGeometry x="1620" y="1190" width="40" height="40" as="geometry" />
        </mxCell>
        <mxCell id="GldbyRCsS9QSyJfhT_jN-97" style="rounded=0;orthogonalLoop=1;jettySize=auto;html=1;entryX=0.5;entryY=0;entryDx=0;entryDy=0;fontFamily=Comic Sans MS;fontSize=18;fontColor=#3333FF;endArrow=none;endFill=0;strokeColor=#000000;strokeWidth=1;exitX=1;exitY=1;exitDx=0;exitDy=0;" edge="1" source="GldbyRCsS9QSyJfhT_jN-96" target="GldbyRCsS9QSyJfhT_jN-105" parent="1">
          <mxGeometry relative="1" as="geometry">
            <mxPoint x="1680" y="1290" as="sourcePoint" />
          </mxGeometry>
        </mxCell>
        <mxCell id="GldbyRCsS9QSyJfhT_jN-98" style="rounded=0;orthogonalLoop=1;jettySize=auto;html=1;entryX=0.5;entryY=0;entryDx=0;entryDy=0;fontFamily=Comic Sans MS;fontSize=18;fontColor=#3333FF;endArrow=none;endFill=0;strokeColor=#000000;strokeWidth=1;exitX=0;exitY=1;exitDx=0;exitDy=0;" edge="1" source="GldbyRCsS9QSyJfhT_jN-99" target="GldbyRCsS9QSyJfhT_jN-103" parent="1">
          <mxGeometry relative="1" as="geometry">
            <mxPoint x="1730" y="1270" as="sourcePoint" />
          </mxGeometry>
        </mxCell>
        <mxCell id="GldbyRCsS9QSyJfhT_jN-110" style="edgeStyle=none;rounded=0;orthogonalLoop=1;jettySize=auto;html=1;exitX=1;exitY=1;exitDx=0;exitDy=0;entryX=0.5;entryY=0;entryDx=0;entryDy=0;fontFamily=Comic Sans MS;fontSize=18;fontColor=#FF0000;endArrow=none;endFill=0;strokeColor=#000000;strokeWidth=1;" edge="1" parent="1" source="GldbyRCsS9QSyJfhT_jN-99" target="GldbyRCsS9QSyJfhT_jN-106">
          <mxGeometry relative="1" as="geometry" />
        </mxCell>
        <mxCell id="GldbyRCsS9QSyJfhT_jN-99" value="A" style="ellipse;whiteSpace=wrap;html=1;aspect=fixed;fontSize=16;fontColor=#0000FF;" vertex="1" parent="1">
          <mxGeometry x="1760" y="1180" width="40" height="40" as="geometry" />
        </mxCell>
        <mxCell id="GldbyRCsS9QSyJfhT_jN-100" value="" style="endArrow=none;html=1;rounded=0;fontFamily=Comic Sans MS;fontSize=18;fontColor=#3333FF;strokeColor=#000000;strokeWidth=1;entryX=0;entryY=1;entryDx=0;entryDy=0;exitX=1;exitY=0;exitDx=0;exitDy=0;" edge="1" source="GldbyRCsS9QSyJfhT_jN-96" target="GldbyRCsS9QSyJfhT_jN-95" parent="1">
          <mxGeometry width="50" height="50" relative="1" as="geometry">
            <mxPoint x="1590" y="1180" as="sourcePoint" />
            <mxPoint x="1640" y="1130" as="targetPoint" />
          </mxGeometry>
        </mxCell>
        <mxCell id="GldbyRCsS9QSyJfhT_jN-102" value="B&lt;sub&gt;L&lt;/sub&gt;" style="rounded=0;whiteSpace=wrap;html=1;fontFamily=Comic Sans MS;fontSize=18;fontColor=#3333FF;strokeColor=default;strokeWidth=1;fillColor=default;" vertex="1" parent="1">
          <mxGeometry x="1598.94" y="1245" width="31.06" height="105" as="geometry" />
        </mxCell>
        <mxCell id="GldbyRCsS9QSyJfhT_jN-103" value="C&lt;sub&gt;R&lt;/sub&gt;" style="rounded=0;whiteSpace=wrap;html=1;fontFamily=Comic Sans MS;fontSize=18;fontColor=#3333FF;strokeColor=default;strokeWidth=1;fillColor=default;" vertex="1" parent="1">
          <mxGeometry x="1735" y="1235" width="25" height="60" as="geometry" />
        </mxCell>
        <mxCell id="GldbyRCsS9QSyJfhT_jN-104" style="edgeStyle=none;rounded=0;orthogonalLoop=1;jettySize=auto;html=1;exitX=0.5;exitY=1;exitDx=0;exitDy=0;entryX=0.5;entryY=0;entryDx=0;entryDy=0;fontFamily=Comic Sans MS;fontSize=18;fontColor=#FF0000;endArrow=none;endFill=0;strokeColor=#000000;strokeWidth=1;" edge="1" source="GldbyRCsS9QSyJfhT_jN-105" target="GldbyRCsS9QSyJfhT_jN-109" parent="1">
          <mxGeometry relative="1" as="geometry" />
        </mxCell>
        <mxCell id="GldbyRCsS9QSyJfhT_jN-105" value="C&lt;sub&gt;L&lt;/sub&gt;" style="rounded=0;whiteSpace=wrap;html=1;fontFamily=Comic Sans MS;fontSize=18;fontColor=#3333FF;strokeColor=default;strokeWidth=1;fillColor=default;" vertex="1" parent="1">
          <mxGeometry x="1665" y="1245" width="25" height="60" as="geometry" />
        </mxCell>
        <mxCell id="GldbyRCsS9QSyJfhT_jN-106" value="A&lt;sub&gt;R&lt;/sub&gt;" style="rounded=0;whiteSpace=wrap;html=1;fontFamily=Comic Sans MS;fontSize=18;fontColor=#3333FF;strokeColor=default;strokeWidth=1;fillColor=default;" vertex="1" parent="1">
          <mxGeometry x="1800" y="1235" width="30" height="100" as="geometry" />
        </mxCell>
        <mxCell id="GldbyRCsS9QSyJfhT_jN-107" value="" style="endArrow=none;html=1;rounded=0;fontFamily=Comic Sans MS;fontSize=18;fontColor=#3333FF;strokeColor=#000000;strokeWidth=1;entryX=1;entryY=1;entryDx=0;entryDy=0;exitX=0;exitY=0;exitDx=0;exitDy=0;" edge="1" source="GldbyRCsS9QSyJfhT_jN-99" target="GldbyRCsS9QSyJfhT_jN-95" parent="1">
          <mxGeometry width="50" height="50" relative="1" as="geometry">
            <mxPoint x="1770" y="1170" as="sourcePoint" />
            <mxPoint x="1830" y="1140" as="targetPoint" />
          </mxGeometry>
        </mxCell>
        <mxCell id="GldbyRCsS9QSyJfhT_jN-108" value="" style="endArrow=none;html=1;rounded=0;fontFamily=Comic Sans MS;fontSize=18;fontColor=#3333FF;strokeColor=#000000;strokeWidth=1;entryX=0;entryY=1;entryDx=0;entryDy=0;exitX=0.5;exitY=0;exitDx=0;exitDy=0;" edge="1" source="GldbyRCsS9QSyJfhT_jN-102" target="GldbyRCsS9QSyJfhT_jN-96" parent="1">
          <mxGeometry width="50" height="50" relative="1" as="geometry">
            <mxPoint x="1570" y="1240" as="sourcePoint" />
            <mxPoint x="1620" y="1190" as="targetPoint" />
          </mxGeometry>
        </mxCell>
        <mxCell id="GldbyRCsS9QSyJfhT_jN-109" value="pNew" style="ellipse;whiteSpace=wrap;html=1;aspect=fixed;fontSize=16;fontColor=#FF0000;strokeColor=#000000;fillColor=#B3B3B3;" vertex="1" parent="1">
          <mxGeometry x="1657.5" y="1315" width="40" height="40" as="geometry" />
        </mxCell>
        <mxCell id="GldbyRCsS9QSyJfhT_jN-113" value="pNew是在 A 的左子树 的右子树上" style="text;html=1;align=center;verticalAlign=middle;resizable=0;points=[];autosize=1;strokeColor=none;fillColor=none;fontSize=19;fontFamily=Comic Sans MS;fontColor=#FF0000;" vertex="1" parent="1">
          <mxGeometry x="1397.5" y="1110" width="300" height="30" as="geometry" />
        </mxCell>
        <mxCell id="GldbyRCsS9QSyJfhT_jN-114" value="" style="shape=stencil(lZzdkh23DYSfZm+nhgR/rx3nPVxlOdqKIrlkOT9vHzCbOdpF83xHe7eW0TMcDgg0GpjzZD/98fGX3z885fOPb1+//P3Dv55//fbxyf7ylPPz548fvj5/87+e7Ocn++m3L18//O3rlz8///ry37//sizXX//48s91hX+/4Iod/VyofP7n5V/OI43//cNfX+w/PX9+bV+OUt5jX48+3mPfjhntM9n3o8b1WwL7cdQc7SvYz6NH+/9vwNa+puOM9rWDfT5ytO90fTuKBfvZwL4c7a19OhJdvx4z2tN+1h7Xn44ywX7E9aej0/Vn9Ld0DPCH5q+zv7HPxwnXb+nIZ7BPJ9rPEu3heVs+2gz2Bu+r2WEW7Cu8L7cP5yXjfjbxh3wMWn+N+2nHSetvR0rBns6v248a7Cvtf4/7adcB3dvLebfrhnv7eeT2xr4cp9237+dxnsE+w/rdfliwN7q+H6cR7Cu83+7uGK/fwH/cvsfrD9jPbnE/63HS9UvcT3co2h+/3Az2FfytS7yqx4B429vR366nXQFsby/+1q4N2NuLvzVej/hb5/XMY6ZgT/lleLqK159w/ZHi+R2HsX3Yz4HxZ+QrnVz287rhPfvRgz3FwyH5MfkJpQ2SAOqABh46yrWAG8BzPoS4UWOIcADeQWJuup3qe4BeIoBYxJAonXzfaEntaGFJBXnEUF5QMNE4ILzoVK977gHKJBqGxjEvR7gB+mH04qZwp3Gd1i1gnhcXuAHmFc7uAUI2cAAdz5mu6HlL384XIZ9NOZ9OoOgATUkgi7GA8zmgBoZjeOIcMFsEdLqDnGlPUoUBI+xSxQM0S3SNlUbANaakNY/zjV6c8q6OgXVK1PDIejIgMl8PxfQeJGp4bKW4NJXbOdsmX2pXbroBEp+HfpGJV4BBL07KP8uYD6eEGTMk5NOPfFiSRz46cco4y5Vi7gFGoLSVX5ynzPAM7ny0pHnVuDeA0xoIlXPGHGf+VPQepEw2L9x4SeOtLxVnKrykQHyKU2M4D+lUap4xbOwQdtHvH0YU3KgdwhnuO+/RMDPuEB2rpB2Cg8cOMa9S4kcR1XMXRIMdwsMBBJwdguvbHcIZIUVBccRaHgGCqy+Rhc9GyBW1ocgzRSSpA6t0jSB1PgpqIUa188gMaG8fuiUs/DTOtsyAHmlEYw6ruaIVjlE9UqFWmTsJS27tIkf3AIHOLX2DnqFGwvhd4PhBVtAmR/IiBeb5CBCcr6frnj9ItnpGzWSKRu2ASdsqhLE/ZJhnqJILb6vIJr2ijuyAEra1HScDgvM5YNAuCdPvnb1VpKU+UKubom33yUxfxQePhRCXhsTW8aAYF/lkJHwPQ9jZyI8K2RA1liRBVaOc6WHXm7knKIT8MG7Fwj3JIr2lc6Ny5Ssi91okPEOXcO/bgLKdPvTAiquLzr3KcxI2b32gV4AJd/BIGpWmE99Dk0DmDl9JK5YT54eWkmIVb121MHU/Wuw2eKQiObRK1bgqVQhkVfRcBxApqyrgVSxktSO2khj4UhG+5GmS4tKiqmcE4B16jN6e6knjKFKXTibURc6D85tEgJvM/QpAZ7pI1Fgcje4gkoWzQNIttTW86kgIlUWy6KojaUnqSxMLWS/5gqAwuejworLVCCA93oR7f+f7e4DIkAsAR9TEl17VIHuE+MZDxEbUfoCQV/EQcYrH8oNnKQkevIss8tF62+CAWUS2Bw6YRbucExXeLIzGTx25R1L3GCxbeOQIS+pciZco7iwVjQA5MppVhtCSzthj8whOTX4pR5f6SQwoln6L8RM9idTY0yjRStEtPbFT/VCjjD8TFihKHFjLMmFXEyUgi/vj5IpkEJk5cHuSXWUGZbE9CMMyA7HaQ7A/2iOs+L4kyrt9QvtwZJxAF7SPPU7D/RT/Xwwc7YOw7iUDnReJpE7YKTDKjMtgbUXaUl5V0fk6Yw9+sNgjEpqXeY2vL/ZEjtR+YIEk63d7Urdkf1bXH68fShG3p6EhLYPbA38IpKVzN0r8c4kRlJQiOe3lihh37MOMjtsTc1StwzDnSUOw54vc3omHgUgsAYmIqcxYJKwEVQLz+A/+IPxsTfnQEFOMP25PyqXwoDV1RLVyZJhtXlT+jn2ccZk8DSBSLbe5R2zHtsFdvZhP28B2VZID7wBMYNJ3dwB5dJKU1DqnMMmpDqDKPYmi6IBMh1IUFAfQqFqSoqC1R8wydAEbT1gkGd5yAD6DnBwHIHdtUUxoFUNFkrOzNHxa0k70pwnPJGJCK3j6vSSIL65gCzpp88UwHyQ9QIbnQTNsy8gQNEW1jDqT5pyWsNTXpLNGdeFNa9ZpJ4r+mnYe9LSyzj5OzCNZTtxSAGlb5cTVge1LTVVrwJoANXIXBxB3cUB407XjhF/WicyO7r0mMM8IoNaIA0LjojbULLMMfVae4tQK0wGJpArpEtSKalyWqOGAQncYUfR3AJFmlVtqwXDvgOitBbsEmqcrD0vbrtdOhYJJpVMNhVqT0qtmHL4xqQUdQNzfpGu2PuHgO0TnS9i4MOn8OYBmy0xULAdkEjkl8tUTxw5NGqqVm8ImEocDqB9komKViTWJif5dWLoziXyFBXOTyOcAYjMmka90rmMk8hXuQ5iIg6VhfjChPw6gmQeTUOkAGiUx+YCj8NyuSU/LAeitUs6s3gedOIne379auwcIZL3YIw0/qOXFMKE4oAiAvpswSShreI13KQSBknAsySQDOQCdTwZuysnuPWI/qPDHfCY5ziZyDdPhzInKnAn3XoONtK2i3xtrqabjn/yFxgbQcDzMJLFbQ/nPpD+6QhsDQsG+Rlh5W+MIa8GiyYRrrBRDABne9yRGg++mM68ZWaV2/laqp4eWPrWzD+zACv0xLjiKCJNOuaikKfr148SUVUR6XmINLykOjQ/U2otILYvJUmNb1MylT8EBKjJgsL6hoqawfvPZUP8vwvkcQCVN0a8uWMH14B5yXOZ5Mm2dP/hwr0jX77sseg8Qv1w1rB+KfKq1GlfkfPohSGbn2wHQ+XYA0pc2gMTOtwOg8yngfOQaCiAKtwWQXKyANDFlbQEUWzcAHlvdADq2bLcAGvbfABqymS0Auw4KqFhabgCedt/3HgpS6Q3A3vumM1aKOgOUeIy7yDBjSpzjpBvuAOoOFxHK1xeePMcUGJkDMGXppBRPh0l1PHn8TCamByoIbp+iPU0C62jYQBatPwLSUX8rMpfTkVm5ffiaiAVBnYXj76GKqKb8EXiRqcrKU2ebj9hxcE4GTgo2l3b26D9ibxzqRCoxnOgv+ukh+2eNDXH+kQsdjszYzy+i3PCPjBT9fpp/REaEnvPR84o9qWc7exrFe/wjPv7H918A+u3506eXHxB6/f/jLwb5P7382pD9/F8=);fillColor=none;fontFamily=Comic Sans MS;fontSize=19;fontColor=#007FFF;strokeColor=#0075EB;strokeWidth=2;" vertex="1" parent="1">
          <mxGeometry x="1291" y="1257.25" width="67.5" height="142.75" as="geometry" />
        </mxCell>
        <mxCell id="GldbyRCsS9QSyJfhT_jN-115" value="" style="shape=stencil(lVtJchw3EHwNrwjsQJ1l+x+KEGUxLIsKSd5+74JpgNNZzUTPjRpVzmCpJWvBQ3r3/dP7r48P0X//8e35t8e/nj78+PSQfnqI8enLp8dvTz/0r4f080N69/H52+Ov357/+PLh5d9f3w/J8dfvz3+Ob/j7BReC83Ggov/n/0+ay/W/T355AXx++nIEJH8EFNc7AUTXwhGQnWeA7KIcAdGVRADFhXIEBNcKAVRX0xHgXWS/0F06ArorZAvR46nqoWYiH1w9nlF1icknF4+XUOaZnctnV/tBPrsUiHx1vh7kk8uRyDc8n3Xp5/LdVQ/ygcmL6+14YfPATuWTdwIX7AK5rxScHFXOu+6JfHK+gHxuRD7P7b3KR6KgqeD5exeIfqaK568KSPQnNVc8yrP99mni174/r+1dW38OrmeQT2Q9ObmC8oXoQy7TnG7ul5x/Vn0Gj0L9QxbjgVwl9lgC3m+cBn0uH10tIM8cXFEXetxvoudZ1IUnkO/kPEtD/8P9SVnu8lW+EXssMq/nmn+rat4R5DvRzxoxxKgBkfXU5GoD+c7Wk50cz1/9Pzn/Wqf5vcoLud+q539cD49Htbt8vF9xkfjzKi4LyDN7aX6Gt5uAyjbcAjogBQjRoKYU4GgxYX3FOUCvDIhNdJ7cWTMxUgGVKFErk5UsQKJRrC0luwEwYtPavKUbANOL1p2HOJkpm1OAJWdCIllTzQBPp76VHGtXzy8IYL6l29hdXSTK3QMapwIaubgeJ5m54bwsHHcT7hXQyLEqoMKmOzW4rv4zIqAR1VBAgyXJ/IpzgJLkhgBhe1D1Pu5hBFl20xVJ74iaRJe6YS1x8bC3AB3CJo+DvaGf18BWOADsQSMVc2RdLQ72UGgoVwAY0CDbbEmqCA0BwuxB0OJGNGEWJ+gqNZyw8KkAoAsaHxq5afHIj5ShN3JKsvj0AoSZs70FaEffmlbEOAcEDLlK6jO5BwXEo2ooq09sSQHdjNL6yJcEaany+kDsQQxtVmLPUmsFSEEAc/cSTSLY+U1rIgcAodREAUBlNHlgXEwBCQDK/oi2ngKEKZ8FxGkhVwGJ5u8ngDwP+jqg37ekMnOmq4DKtVWjKHD6NgPAWwBMAhqN0wrokGV0ymZE4/TRREdixkw0IcHKnOgqAIh00aDI7CFhnNbcj3qNjBSucN6qgNgRQPeQkdyXxPeQJ2FbgEzTMSnz1Beg0BingFIQwOiPAgROqbpMYpzUGcYXoNEShgJ6RACNQA1rHpr1MvqjAAhZCqB+qU9FWICNb+3zTFba6rlf6sgERmbNlwRMQAGdmWjHzFhz8coAgtxbk3FGQ8XUYjQbZ8XXE0CZvvAqoNLyygmg8cBuAZ0HdguQ6QuvA+SuU9Kkn3pvCwg8AllAnGW4q4A0ned1AKtDnQAyrTqcAApN/E4Bd95D3RkQAhonWBbQufc+A1DvbQFyp8U1nrxaQOcV4hPAxvOdAVjN9wQQZ5X2OqDxX4hH7t03NFRP3QBYXVMBkJb1rW8FzqcAluIrAKpwvfC0TOaZ3ACEW1wHQJ2k7hQQvMdUURFyJ6JNtnwZsSoLdyAoQbEbF87w7dFuYwTctqblG98ECigbdmzYwEhp2W0vT7QAmoZwAJAs2QQV0yuSxLPFis1e4Q1xJbutIoDmQYawj0+YMzNZyqDwd2WLg8KzJZn6jPA4p6qG91B5gbPNOvQNgCnfcCwAaLQLqs4RvJ/wSGpL2cLrxho3A5xSp/egZKFmBDD1HgxJEMAIe1sWvAArLp0ClNqKRwBLzaoZ3xChBqQZQzG/wAKjZj1Q+1YA8xqa6nXsZ/EOuearOBazQ5ie7hbhcYpgh8gNWyPCeVMu2MjbnFROuCZZsxrnAFN3lVVNPgXY2YPNbaeKtYEBYNMNpjWyUcCUjPdbDdNzQJgFlos28VpPvwFENnHUsDUyzJT9QsEWu/DqQ0yYuY9qAXEEMWJrZNQjiDMLS9VuvR9ZUmhYINz419F6NC6fMeSQjPJVqq0hGg/Ou5dhNUJuAiPNI7BTOEI1i1pYkB/kgUUIHO0Y5IDNUkwqcpEvmVGTwSXYrAw61tH1YD7PxKvVuHlDHrWUV3QTBp8NKY7ojVSeFYsijjb1zmfpcPRF5QO534Ct6V1qgkMLowtL1mNGm1Se1eA9+qFNwueR8XQ+S+SxC6fyzF482tdIoun3Q1uwR1qUNUG8h836Mc3js2vm+xsPl2b9jbt1c56bctKqEt7Uq2hii/ozBnOoPLShlOIyfmrspa35kTfkITVqnuYhCdsxVWj/JmGuNgg0kTejfZWPA2QcnFK+TSng/LYbeXZfxj9Xbl8FGzE1Uf9QZt3upmEQyPqLGaXm7WFNro/6UPmsqolfo2tD4xfkgJpcsOKRlefTTFae8wcrz+3LyvPyhpXngxhWPtDihpXno4ZGPvPZRyvP46mV521wK8/t0cpvZmeNfJol1YvyfNjByof77jf7+/Qt8fhl5e+0x8TbtFa+0f6jla90+upMnrUFrPyd9p54ac/KZzoyZ+X5jOqZfLpHf1Lks+kn8nT2Hf1/CnT4zcSjxEvWJj4mTwskZdaCb+RZ1pzxaUzy1P+Y/EgzykrzKZxX5P7T8JPNMOGZPCuNZHzKEXd8Cdff6NC1PR/uz835j4yY3i9OZ/J+leEzQ6PI+uu07iWfN/k7lAhVnpacsT4Q+TxGwwaMyrPBm45NzMjzqY5Nqsj5oeDIl2YQtFmN+ebIiFn+a4rN0VPCZytAm0HrYF67bJ6TKQCfD/G68XgqAS8VhPZSginJb8bRFQC1vsDDdkjoJxTA4p4C8A1Xp+Mkp7/A5h7Gcw8AbMqPEZ8Zjse2TJfs29nGizsBy8ChUnZ54f2v/vH6evjj0+fPL4+Pb/8fXxvrRy8vldPP/wI=);fillColor=none;fontFamily=Comic Sans MS;fontSize=19;fontColor=#007FFF;strokeColor=#0075EB;strokeWidth=2;" vertex="1" parent="1">
          <mxGeometry x="1647.5" y="1219.1875" width="59" height="147.8125" as="geometry" />
        </mxCell>
        <mxCell id="GldbyRCsS9QSyJfhT_jN-116" value="" style="shape=stencil(lVrLctw2EPyavaKAwfvsOP/hKsuRKorkkpXX32eQNbhkD9lc3VarHi4IDHq6B7jETz8ev3x/uIj/8f72+vvD309f3x8v8ZeLyNPL48Pb07t+usTPl/jp2+vbw29vr3++fL3+/f3LQI5Pf7z+NZ7wzzWuuZJGkPh/r1+E6nL9/5tfr/jnp5cVvromiJdwjO8uwPOzC/4YH7zrcRsQXSY/EIKrECCuNRKg/w7bgOAKeeWQnPhtgHepkIDsct8EdCcMX13YvkJzkb1Bc75s8NVVju8N8JKO8eLx+cU1ju8d8InhxfkKeJYTEl3IG3x2lSyY6IJFwGf2/GyfHxm+ON8AT8dfnd9mXHKd42sDfOkE3+3zE8FH7yQDXhg+uLidz+g6yecoLhfAs/FHfVwGfMwEn+fr3fCePV/nf0tC4ip7fkNKEZcIBSXvggA+kOenhW8WQqGMlXQ6CuALw2cnQNIuMXxxHRjRRbJ/U5vb74YPBJ+9KzgeT+Yzi4vb8XjXyH7PCfPfu8rGkzE/dYBkP+Y6t/cNn9h4Guanp/NZlG8j4IWMp+hyCuB/FpB9vMztesN7Mv6idGPwbDwF8/kE33bwTHP4me73zU+VSTer9WL45HK63J8PtbiIz2f5Wdukp1v+C8N35P8wJcsuvhl+FsqfTeZwb3jGPy1N+XLjW1ZfWnYF6wvj51bmz9/wjeRzq5jPmWrW1lxDfcL0T+uY/wtB7mtcw/91TsARPqHeSxzft/zD9WQPO4LV84AcMIBltAagDeAauosTSGndpGxOBTW0+gBWxDQAJkl1O9sFPU7jsrImP+vmUQCWYa5bNSDDLNWzABQGzQU2S3FulCWg84Bk/Fif4v0oIIF2WhzaUQCIicFeLPlUbAMbKR2xWcr40spHjB97mXJ+CUhUQGlA3a60MgxTsL2i4lLKOAnI8A4q+tlL12nBloDFuh8FgClT1sjspRu6IPUJme2HhtOqRoH5Yg1IUEdkVtKjgLLNJbUKrPJ3o0xjolJkN6CzabUBebqXewMKdU87AXXWr3sDGvXHGtC32Ro7T76Ohl0tD02+jg5cPQ9Nvj47HkvASWp01GzDJTFe6igKU6IqTAMaqJhMZXzwi+xdIgotcnsRfK33IpTxWXPJRqgfO1ltePFhyPjiwVrkODPszvQYlowtnsnY4cn4NgVuUlNW2JAqpoe6MmFDqqaJFWhXx1ahErnsy2h71JidVFLs2xUuFE1xL3Uu5Z16Y3g5lhpGApXO6TKa3maY7vhOoaj2j4oswW5rjVwzGXWshjFyPwBStGZeST2qY7WYlTmgbobUqIVupqWlJlOY56vYJW+qBpipNCZObSmTQOoSwcU1oRtIA8J2pVvkAWm27ZaANDvh+wERGzf6VoEsnI64btNb540GBFfhFxpVNBoQtjSja08DPDa3RnbxbkPfksDwj2SWNCBuX7rzfoPmZgX/Gim3aoDAkBIlgWo65p232DUgwCxlqmhsz2fwOSEB3fIgdjWAJZ/tQnXeRqjmWGRIeLLjlEmLxwBGM8rVGMCTT+sN9AWGNmC/EKcsXAUw85c77riVwDnq9ibzEszBZm9WbmkIHfXbs3lrVnftgcFwOuxEJc0G1yo3GskNsXtUKwpJV3XEIMB1QwR2yGYOCW/9kX0hWrAr1fmxRDBta6U+1scN3hSIStdBtwuUrDy/2c/WOd5VAWJSI+M5m7K5kA2a8PmjE8wOqqYcXKkANkERd4LSIOsLCp7FK6kxASrzWGQllGjS4bmNUho7OA5oTFTqsYPagHVnaEnmrpCBT8RqwJqgapg1ogKeG6vcZv7Q3IVQfmUe12MjQA0Da+6ZczmlY3aRwBBjEXo3w+M5nloktl4eC9o4GaPjR2fbqHu2+ErXy+ILbYvv4Zkqt/h8sr6IT7RsWHw8yQeLF5L/Fi/U51h8oBdL9vD+Q3hP+Xmvl8Jk5ke7Nbv9ILq/EJ/pQbPFp4/lT4pUMFq8fBAfqEa2eE/53+Bjp6Ld4ht1BYZ/FM98iuG3WKf5uo8/YznJH+BnxQvdX7Y3zRSWqS+qM+nVOax3kbdQTb2OkZ4SCpqyKFSpi5kfoRchIp7Dj5tNZD7j7HgseH4iktCrS6cqPaFrHdclyfxnHL8qWHaxzTifcX2TOZ+p1lZ4Vq+1um3nX3g+F3NPocyT8AM8NEtuv7hvcPGezrgYwBw09ofGDDOLjt5znCOyixlmfhLtWpt7Q5qB7CJTm1Z5hadHGmZ+hB/z472PcbGE9WLNfAZ+kouudlyMYf1qM/9+fnOAh5akeFq/grmIFTptwVjHeXL+HpabYEtAowdj46pxx4CTX4CkCJWasBDm81YBbNefXxnXD7f75t+enp+v19XX/8f76frV9W57/Pwf);fillColor=none;fontFamily=Comic Sans MS;fontSize=19;fontColor=#007FFF;strokeColor=#9933FF;strokeWidth=2;" vertex="1" parent="1">
          <mxGeometry x="1363" y="1263.125" width="40.5" height="93.1875" as="geometry" />
        </mxCell>
        <mxCell id="GldbyRCsS9QSyJfhT_jN-118" value="" style="shape=stencil(lVrZchs3EPwavU7hBubZcf7DVZYjVRTLJSvX32c2KiyJxrKxfJPI7uViMEfPAA/x08+nLz8eH4L7+f72+vvj389f358e4i8PITx/f3p8e363vx7i54f46dvr2+Nvb69/fv/68f+PLxty++uP17+2J/zzwfNFWtxYwf378YlWyfr/J79+EF6ev18TsmSPBM8IUVIdCUVKJAQvrY2EJBooIZSREPuqjglOXBgJXjTdJjTRcc1NpRaGd2nEm1HdbXyVNG5Cy/0ND/G2afA+QVJmeDcaqDnx5PlZ4mifWql9kuRxx2oWJeu17RntU6Moef8oTkd86Cs6xAcJoz2rrbcRh5A0Pr80CcQ+Ttro0qVIqAxfRnuWJJG8j5MIzw/Uf5yEPOLtF0lM7rvf8VlpDFu8uBFfaYDNeB7yMz4v1ov4JIn454yPEv09+ED9Z8Z7ccSfJ3xSaXfhm2Tqb7C/qdJ4mfwnmf0pPsP7pMV6dYyvFHpROBePyfeMegOvY/6JKoXsb5Ayvn9sdH9jzwY7vvQn3MDrmG9j7hnsRv6s8D5RKomXKT/HQPNJlgZ4L568f+nR0fFB+xPO1SOrgMz+tVt7x1sFpPg8+qf9YiL2sew02tMswOrjVK9tRxKxj1WH0T9txyPVDxmebxWKrLdJheeb/xO8Shjt6ZX6j30L+EbtY4IpjQb1lTq0Edq4AtONlUWwlwgEXiJ9wJxonzANYV9DEbbfLCwJWdSPu7aZgRMKSGPqFYaHtNj6Ph7jzSJjWqld59zC11EGWVwzfMY0Z1FDon5rBSBNc4NmlH2R6/qCsi+KJ1XJ8Gm0j1UZZs+p9/E9jx3jzdzgcnS/tjI8yjhHVdO2vAT4zPAF/cF0I8laWxKPgPdMdce+/Re8Y1WyYkjuuuW46jn0hwXe3Kvdgy/dXU7iq1TcL4pX7Ds5Pk9twAI/yZoFfi9CJ/GT7FjgS28STuJrTwfn/CdPZYz7Z/FzvDD/L1NCd7xrzji54PFbKtqT5wdrSl0GPKva1vSCfUJ3wGN8Qpkeuq44xheU3bEX5WN8m2QxzedVcUxgL0jwzaFsTV1VHOMDysrcE/YxPqKMy7SraqmL1Au+MXzuQ4FL/fUMX7rIu+BZ12x4GJRVGi+t4tii8ilWkwZjIykMvzexF/1TiP5RJxUUGR9bqEcHMgnH5ky6j8V2QqQSSGOfI1zJ0EJiWBO2Sr7QUYpmFAV+Lzu3CApWMllJtllLVw1X3QPTTbq7zVV7ouyVLLEDIfE1NIwEc+3MzNq6Z151lImtQcWPi46OjuSMEGFmEGj0GKHAL+xt/i1CHa0UM7eSYjzH3dA3uqxpMLQYfBwwkqdJ74gRado+YmQ+8T9gVN5KHDC0q6uzDNNX+T5bLcaGR4xMB+1HjNJVxGnGom08YJhrsnHC5IgmtRz3XHD1bWDN4nsKppL4hGMK102dseKiUzEtVP1Yyilj6i+NykkjgPwsi6lL7XGz119PBZZlcpjT1EjnoHOt2DQgS2pJFE5KSk+ktwhwlFQr96WITYPJwMAWHbDL3nQg2wffZ2k7IdC5iOmOOHqrKcHIhQ0MUjYpyJSoVSN4pUxHRya14MTHxB1zPtNy0EvaJ2wEP4tFIzBvNQJ0t9tLMkLGALoIyFt6WmGnlc78jOAiElhHNit823uWNcxzoGVVfvLQPAaQ8npqBIgHc3g2Sm0ONawGWuksvtJ0HM6UjfVxeEIfafW1kE/TCT3tdAt23kZojJCwoFhqY7M8S4ygMLVQ0WupF3KrERrZ6boPF3ZCpTrIqgGkyq1ikJ0uFftdI7DMZyVQYdHaT/KOCQkPxo3A6oOVcdwHpRq2zHcxlA4F8nwW4RZjpem0ZsmYzrOWjOlGw5IxXXNZMgKWoSXDzycSy5EjnASvGGnSTUtGxTS+ZJQ+RzjNyDiKXjISDoOWjP386DTDd+lzmuFwZLZixNbPzU4zKkrlJaOgkl0yptK9ZMR793w7077zN1y/pXSWMR+JLBnt3j0PFW8bLBnTIHaRRLcLAVMhYBdKQsIoX+T1bXQ8/QJTIcHjFMoITAKHub5qv+Zw3NfO9VXprQZfMcC3MRP7hflyZFudiMKJljZ+cSX3N74SFXTwMVfwSnuXbeBZkcDuAvmADr4NFNlZ/3xfs9C2dr5NMBHsj8uN1W/PLy8fF16vv8cbrvbRx+3Y+Pk/);fillColor=none;fontFamily=Comic Sans MS;fontSize=19;fontColor=#007FFF;strokeColor=#9933FF;strokeWidth=2;" vertex="1" parent="1">
          <mxGeometry x="1724" y="1221.5" width="50.5" height="83" as="geometry" />
        </mxCell>
        <mxCell id="GldbyRCsS9QSyJfhT_jN-119" value="由于B&amp;lt;C&amp;lt;A" style="text;html=1;align=center;verticalAlign=middle;resizable=0;points=[];autosize=1;strokeColor=none;fillColor=none;fontSize=21;fontFamily=Comic Sans MS;fontColor=#007FFF;fontStyle=1" vertex="1" parent="1">
          <mxGeometry x="1750" y="1135" width="120" height="30" as="geometry" />
        </mxCell>
        <mxCell id="GldbyRCsS9QSyJfhT_jN-120" value="基本模式是把ABC调成CBA这个状态" style="text;html=1;align=center;verticalAlign=middle;resizable=0;points=[];autosize=1;strokeColor=none;fillColor=none;fontSize=21;fontFamily=Comic Sans MS;fontColor=#007FFF;" vertex="1" parent="1">
          <mxGeometry x="1355" y="1380" width="350" height="30" as="geometry" />
        </mxCell>
      </root>
    </mxGraphModel>
  </diagram>
</mxfile>
